<svg fill="none" height="100" viewBox="0 0 100 100" width="100" xmlns="http://www.w3.org/2000/svg"><g fill="#282749"><path d="m32.0456 45.6218c1.3584 1.6435 3.4161 4.1222 5.5666 2.6075l.0752-.0534c2.3452-1.6702 5.0445-1.377 8.0446.8662l-5.5886 5.4815c-.4425.4442-5.31 5.0772-5.31 11.0562v1.8301c.0024 1.0498.4191 2.0557 1.159 2.7976.7398.7418 1.7423 1.1591 2.788 1.1603h22.8858c1.0457-.0012 2.0484-.4185 2.7882-1.1603.7399-.7419 1.1567-1.7478 1.159-2.7976v-1.7768c.062-.9461.0265-5.6147-6.102-11.3316 3.4913-3.909 5.2391-8.0312 5.1904-12.2955-.0885-8.2089-6.8145-13.7348-7.1021-13.9658-.3657-.2948-.8329-.4318-1.2992-.381s-.8933.2853-1.1875.652c-.1461.1819-.2551.3909-.3206.6151s-.0862.4592-.0612.6915c.0251.2323.0954.4573.2072.6623.1119.2049.263.3856.4445.5319.0575.0444 5.7082 4.6864 5.779 11.2339.0398 3.678-1.708 7.3204-5.1905 10.8519-.1559.0946-.2951.2147-.4116.3553-.0394.0505-.0748.104-.1061.16-.5088.4886-1.0444.9728-1.6152 1.457-.3588.303-.5829.7365-.6236 1.2054-.0406.4689.1057.9347.4068 1.2954.1664.1992.3742.3593.6089.469.2347.1098.4906.1665.7495.1662.4162-.0007.819-.1485 1.1374-.4175.3053-.2577.5973-.5153.885-.7774 5.2524 4.864 5.0798 8.5509 5.0798 8.5554v2.0256c-.0012.1076-.0446.2104-.1208.286-.0762.0757-.1793.1181-.2865.1181h-22.8857c-.1072 0-.2101-.0424-.2863-.1181-.0762-.0756-.1196-.1784-.1208-.286v-1.8302c0-4.5531 4.1373-8.4177 4.1772-8.4399l9.7746-9.5947c.3346-.3295.5253-.7789.5302-1.2494.005-.4705-.1761-.9238-.5036-1.2604-.1623-.1673-.356-.3007-.5698-.3928-.2137-.0921-.4434-.141-.676-.1439s-.4636.0403-.6795.1271c-.216.0867-.4129.2154-.5793.3786l-1.5708 1.5458c-4.2081-3.3271-8.4517-3.9002-12.1111-1.617-.4967-.4956-.965-1.0192-1.4027-1.568l-.2124-.2576c1.2833-1.8878 6.2923-6.9295 12.8324-12.522 4.748-4.1 2.7435-10.1235 2.655-10.3767-.1538-.4422-.4755-.8056-.8948-1.011-.4193-.2055-.9024-.2364-1.3443-.0861-.443.1517-.808.4733-1.0153.8946-.2073.4212-.24.9077-.0909 1.3531.0531.1643 1.2877 4.02-1.6151 6.5297-3.363 2.8785-6.7259 5.9657-9.2304 8.471-4.5842 4.5931-5.0267 5.9345-5.0798 6.8318-.022.2849.014.5713.1061.8417.092.2703.2382.519.4293.7308.2212.2532.4822.5419.7344.8751z"/><path d="m70.6312 76.6314c-9.7791-2.3143-38.7714-.0311-40.0015.0666-.2319.0185-.4579.0828-.665.189-.2072.1063-.3915.2526-.5424.4304-.1508.1778-.2653.3836-.3368.6059-.0715.2222-.0985.4565-.0797.6893.0356.4462.2377.8624.5658 1.1655.3282.303.7583.4706 1.2042.4691h.1415c.2965-.0266 29.6694-2.3409 38.9087-.1509.2269.0533.4621.061.692.0229.2299-.0382.45-.1216.6478-.2455.1977-.1238.3692-.2855.5045-.4761.1353-.1905.2317-.4059.2839-.634.106-.4588.0264-.9412-.2217-1.341-.2481-.3999-.6443-.6844-1.1013-.7912z"/></g></svg>