<svg fill="none" height="100" viewBox="0 0 100 100" width="100" xmlns="http://www.w3.org/2000/svg"><g fill="#282749"><path d="m80.4422 65.7998c-.2759-.105-.5616-.1824-.8528-.231-3.8215-.999-7.2371-3.1632-9.7725-6.1921-3.2604-3.8379-6.0278-8.0401-7.5825-12.913-.9294-2.9116-2.7332-5.4661-5.1661-7.316-2.7557-2.1174-5.8055-3.8218-9.0529-5.0595-.5375-.2132-1.066-.4442-1.7057-.733.8417-1.5968 1.9729-3.0232 3.336-4.2066.5269-.4676 1.1413-.8262 1.8077-1.0549.6664-.2288 1.3716-.3231 2.0746-.2777 1.9244.1054 3.8032.6251 5.5081 1.5236 1.5636.8218 3.0339 1.8257 4.5264 2.7807 1.7768 1.1328 2.6297.8619 3.5848-1.368-.4043-.5286-.7774-1.2971-1.3815-1.7768-3.1628-2.3676-6.552-4.2156-10.5499-4.8553-3.4825-.5552-6.4586.2133-8.8396 2.8386-1.1891 1.2111-2.2517 2.5402-3.1715 3.9667-1.8746 3.1805-3.5537 6.4765-5.3305 9.7147-.7418 1.3326-1.5369 2.6652-2.221 3.869-3.0517.5642-5.7169-.1555-8.3421-.8351-2.6253-.6797-5.1972-1.6347-7.6448-2.4209-1.1416.342-1.7279.9594-1.6613 1.9856.0666 1.0261.8173 1.5191 1.7146 1.7768 2.9673.8884 5.899 1.95 8.9107 2.6341 2.0286.385 4.0926.5503 6.1566.4931 1.0813.046 2.1516-.2338 3.0719-.8033.9204-.5695 1.6484-1.4023 2.0898-2.3905 1.0883-2.1811 2.2565-4.3221 3.407-6.4721.271-.5064.6041-.9773.9906-1.5903 1.1327.3998 2.1855.7108 3.1939 1.1328 3.2249 1.3326 6.2898 2.9406 8.693 5.5836 1.089 1.1141 1.8896 2.4773 2.332 3.9712.4442 1.7235.0978 2.8607-1.3858 3.8335-1.0392.7002-2.1612 1.2686-3.3404 1.6923-2.3676.8174-4.8196 1.3993-7.1917 2.2211-1.9549.6519-3.8634 1.4355-5.7125 2.3454-.7854.3579-1.4296.9666-1.8315 1.7304-.402.7637-.5391 1.6394-.3895 2.4895.1479 1.3135.4352 2.6075.8573 3.8601 1.5592 4.2199 4.2289 7.7692 7.0762 11.1806 1.3326 1.577 2.4076 1.3327 3.527-.6663-.1599-1.4836-1.3948-2.3542-2.221-3.4559-1.9323-2.6252-3.8291-5.2638-5.024-8.3243-.4442-1.075-.9684-2.1766-.3732-3.6469 1.1487-.5296 2.3246-.9982 3.5226-1.4038 5.1572-1.4836 10.501-2.4608 14.9385-5.9745.3199.502.5642.8573.7774 1.2305 1.9358 3.325 4.3668 6.3357 7.2094 8.9285 1.9808 1.8983 4.3077 3.3987 6.8541 4.4198 1.236.4807 2.5218.8219 3.8335 1.0172.2195.0467.4463.0469.6659.0009.2197-.046.4272-.1374.6095-.2683s.3354-.2983.4492-.4917c.1139-.1934.1861-.4084.2121-.6313.1111-.8928-.3732-1.5102-1.1861-1.8612z"/><path d="m32.9481 36.7532c.9273.0393 1.8528-.114 2.7181-.4498.8653-.3359 1.6517-.8473 2.3097-1.5019.658-.6547 1.1734-1.4385 1.5136-2.3021.3403-.8635.4982-1.7883.4637-2.7158-.0512-1.8322-.8211-3.5706-2.1435-4.8398s-3.091-1.9672-4.9238-1.9432c-.9079-.0036-1.8076.1733-2.6467.5203-.839.3471-1.6008.8574-2.2409 1.5013-.6402.6439-1.146 1.4085-1.4882 2.2495-.3421.841-.5137 1.7417-.5049 2.6496.1111 4.7308 4.02 7.0407 6.9429 6.8319z"/></g></svg>