<svg fill="none" height="100" viewBox="0 0 100 100" width="100" xmlns="http://www.w3.org/2000/svg"><g fill="#282749"><path d="m77.912 69.4865c-.0977-.0755-9.6614-7.6714-23.334-30.8055.4442-.4043.8884-.8129 1.3326-1.2171 2.8118-2.5853 5.2416-4.824 8.1378-4.4021 2.8962.422 7.1916 3.8113 9.5548 9.2838.1865.4321.5368.7724.974.9465.4373.174.9256.1676 1.358-.018.4321-.1866.7725-.5369.9466-.9741.174-.4372.1675-.9256-.0181-1.358-2.5986-6.0367-7.6625-10.7231-12.3089-11.3983-4.562-.6574-7.9957 2.5097-11.0474 5.3037-.5864.5375-1.1949 1.0973-1.7768 1.6126-2.8385 2.4564-11.9491 3.2781-18.7588 2.6296-3.9534-.3776-6.0633.0001-7.0628 1.2838-.2405.2985-.4026.6522-.4716 1.0292-.0691.377-.0428.7653.0763 1.1296.1233.3503.3532.6532.6574.8661-1.2593.6751-2.3122 1.6789-3.0466 2.9045s-1.1231 2.6274-1.1245 4.0563c.0012 2.0943.8337 4.1024 2.3146 5.5833s3.4891 2.3134 5.5834 2.3146c2.0943-.0012 4.1024-.8337 5.5833-2.3146s2.3135-3.489 2.3146-5.5833c-.0021-1.9432-.7197-3.8177-2.0159-5.2655s-3.0802-2.3675-5.0114-2.5837c.5108 0 1.1238.0445 1.8656.1155 5.3083.5064 13.8815.2799 18.9721-1.9855 2.4742 4.1799 4.8151 7.8712 6.9917 11.105-2.6918 1.6969-8.7109 5.6148-10.8697 8.0224l-.1376.1732c-.4401.6093-.7295 1.3143-.8445 2.0571-.1151.7428-.0525 1.5022.1826 2.2161 1.7502 5.5437 13.3793 10.0657 15.6892 10.9141.1962.0729.4038.1105.6131.1111.3641.0005.7196-.1109 1.0183-.3191.2987-.2081.5263-.503.6519-.8448.0808-.2193.1175-.4524.1081-.6859s-.0648-.4629-.163-.675-.2373-.4027-.4093-.561c-.172-.1582-.3736-.281-.5931-.3612-5.0728-1.8657-12.6242-5.7746-13.526-8.6486-.0664-.1799-.0885-.373-.0645-.5632s.0933-.3719.2022-.5297c1.8035-1.9367 7.205-5.5125 10.1589-7.3737 9.0218 12.833 14.8054 17.3861 15.103 17.6304.3107.2391.6919.3688 1.0839.3687.2718.0006.54-.0612.7841-.1805.2441-.1194.4576-.2932.624-.508.1452-.1835.2527-.3939.3164-.6191.0636-.2252.0821-.4607.0544-.6931s-.1009-.457-.2156-.661-.2686-.3833-.4528-.5276zm-43.6697-19.1274c-.0012 1.1518-.4593 2.2561-1.2737 3.0706-.8145.8144-1.9188 1.2725-3.0706 1.2737-1.1519-.0012-2.2562-.4593-3.0706-1.2737-.8145-.8145-1.2726-1.9188-1.2738-3.0706.0012-1.1518.4593-2.2562 1.2738-3.0706.8144-.8145 1.9187-1.2726 3.0706-1.2737 1.1518.0011 2.2561.4592 3.0706 1.2737.8144.8144 1.2725 1.9188 1.2737 3.0706z"/><path d="m45.7073 36.2422c3.3806 0 6.1211-2.7405 6.1211-6.1211s-2.7405-6.1211-6.1211-6.1211-6.1211 2.7405-6.1211 6.1211 2.7405 6.1211 6.1211 6.1211z"/></g></svg>