<svg fill="none" height="100" viewBox="0 0 100 100" width="100" xmlns="http://www.w3.org/2000/svg"><path d="m64.6275 82.0097c-.2887.0222-.5774.1599-.8662.1688-3.2382.1111-6.4721.2043-9.6971.3065-.6174-1.1238-1.1415-2.0078-1.6035-2.9273-2.2026-4.4372-3.8284-9.1381-4.8375-13.988-.9284-4.3443-1.6391-8.7152-.8439-13.175.1199-.6841-.0844-1.5192.7773-1.9012 3.8868 2.0656 6.8955 5.4671 8.4711 9.577.8662 2.3321 1.2926 4.8329 1.9234 7.2538.2132.8218.4443 1.6391.6486 2.3632 2.221.1777 2.7984-.2976 2.563-2.0655-.179-1.6146-.4639-3.2158-.8529-4.793-1.6569-6.1833-4.633-11.4871-10.2878-14.9386-.3521-.2501-.6861-.5246-.9995-.8217.8885-1.5547 1.8124-2.9807 2.5187-4.5087 2.6119-5.6503 3.1095-11.6515 2.7319-17.7682-.1021-1.6213-.7552-2.3764-1.8035-2.3497-1.1372.0311-1.6436.8884-1.6303 2.6385 0 2.1322.1288 4.2732 0 6.3921-.342 4.8862-1.5369 9.4838-4.6286 13.4016-1.6487 2.1154-2.6265 4.6757-2.8074 7.3515-.2073 2.5777-.1612 5.1695.1377 7.7381.2875 1.8847.0044 3.8123-.813 5.5348-1.9145 3.9978-3.6602 8.0711-5.3304 12.18-1.0395 2.5853-.191 4.4732 2.3365 5.6192 1.2079.5548 2.481.9547 3.7891 1.1905 2.8252.4841 5.6814.8084 8.6487 1.2171 1.5547 1.6702 2.6876 3.9489 4.9841 4.9706 1.9279-.9417 2.1322-1.7547.8573-3.1406-.4442-.4797-.8884-.9461-1.4748-1.5547 3.2872-1.1016 6.6632.0001 9.6882-1.2703.7596-1.919.1954-2.843-1.5992-2.7008zm-24.538-2.5142c1.3489-3.7385 2.906-7.3985 4.6642-10.9629 1.7457 4.6375 3.3938 9.0128 5.0418 13.3794-2.381.6574-7.7071-.5997-9.706-2.4165z" fill="#282749"/><path d="m40.9157 25.8406c4.1978.0711 7.7602-3.6158 7.7558-8.0268-.0052-1.0343-.2147-2.0574-.6164-3.0106-.4018-.9532-.9879-1.8175-1.7247-2.5435-.7367-.7261-1.6096-1.2994-2.5686-1.6872-.9589-.3877-1.985-.58209-3.0194-.5721-4.442 0-7.7468 3.5092-7.7424 8.2088.0089 4.1667 3.527 7.5603 7.9157 7.6314zm-.0489-12.7308c2.3721 0 4.6242 2.3632 4.562 4.7796-.0519 1.2262-.5806 2.3836-1.4734 3.2258-.8927.8422-2.0791 1.3025-3.3062 1.2828-2.341-.0355-4.4421-2.2209-4.4421-4.6196.0347-1.2253.5366-2.3911 1.4029-3.2582.8664-.8672 2.0316-1.3702 3.2568-1.406z" fill="#282749"/><path d="m47.1299 39.331c.1644-3.4826-2.723-6.3078-6.2634-6.3211-.8129-.0345-1.6244.0941-2.3868.3782-.7624.2842-1.4602.718-2.0522 1.276-.592.5581-1.0663 1.2291-1.3949 1.9734-.3286.7442-.5049 1.5469-.5184 2.3603-.0444 3.5537 2.4877 6.4942 6.3612 6.472 3.5093-.0266 6.0813-2.5585 6.2545-6.1388z" fill="#111042"/></svg>