<svg fill="none" height="100" viewBox="0 0 100 100" width="100" xmlns="http://www.w3.org/2000/svg"><path d="m46.0246 37.4467c3.4428.0356 6.3392-2.6652 6.4236-6.0012.0018-1.6772-.6506-3.2889-1.8186-4.4926-1.1681-1.2036-2.7596-1.9042-4.4362-1.9528-.8124-.0047-1.6177.1518-2.3693.4604-.7515.3085-1.4343.7631-2.009 1.3374-.5747.5742-1.0298 1.2566-1.3389 2.0079-.3091.7512-.4663 1.5564-.4621 2.3688-.0223 3.5981 2.5055 6.2321 6.0105 6.2721z" fill="#282749"/><path d="m13.8291 45.078c-.3668-.0144-.7326.0457-1.0756.1764-.343.1306-.6561.3293-.9204.5841-.2643.2547-.4744.5603-.6175.8983-.1432.3381-.2165.7016-.2156 1.0687 0 1.6036 1.1814 2.6963 2.8425 2.6652.3655.0051.7283-.0643 1.0662-.2041.3378-.1397.6437-.3468.8989-.6087s.4543-.573.5853-.9144.1912-.7059.1766-1.0713c-.0417-.6997-.3482-1.3572-.8572-1.8391-.509-.4818-1.1824-.7518-1.8832-.7551z" fill="#282749"/><path d="m87.5048 46.0909h-15.9069l-11.9712-10.261c6.5786-1.8834 11.7046-1.8035 14.9251.2709.9685.6278 1.7901 1.4573 2.4087 2.4316.6187.9744 1.0198 2.0707 1.176 3.2142.0358.4462.2388.8624.5682 1.1655s.761.4707 1.2086.4692h.1333c.2328-.0174.4598-.0805.6682-.1857.2083-.1052.394-.2506.5462-.4275.1522-.177.2681-.3822.341-.604.0729-.2217.1013-.4556.0837-.6884-.2039-1.6749-.7685-3.2856-1.655-4.7212s-2.0738-2.6619-3.48-3.5943c-4.7174-3.0783-11.8113-2.9895-21.0818.2798-.0516.021-.1019.0448-.151.0711l-.1244.0577c-.0956.0519-.1851.1145-.2665.1866l-.0488.0355c-.0966.0875-.1844.1843-.2621.2888l-.0489.0844c-.0546.081-.1007.1672-.1377.2576-.0105.0153-.0195.0317-.0266.0489-3.7846 9.7725-17.3817 11.5004-18.4922 11.6248h-13.1439c-.4712 0-.9233.1872-1.2565.5204s-.5203.7851-.5203 1.2564c0 .4712.1871.9233.5203 1.2565s.7853.5203 1.2565.5203h45.3885c-1.7774 1.2934-3.415 2.7688-4.8862 4.4021-5.135 5.7747-6.7074 12.4067-4.5486 19.2207.1141.3595.3395.6732.6437.896.3043.2228.6716.343 1.0487.3433.1825.0002.3639-.0283.5375-.0844.4474-.142.8205-.4552 1.0377-.8714.2173-.4161.2609-.9013.1216-1.3496-1.7768-5.6014-.5196-10.8829 3.7447-15.7026 1.5379-1.7151 3.2803-3.2354 5.1882-4.5265.8485 3.7935 2.7097 8.1556 5.5659 13.0108 1.3637 2.3232 2.6963 4.2999 3.5536 5.5481 1.7768 2.5586 1.8924 2.6653 2.5942 2.8341.3583.0865.7346.0593 1.0768-.0776s.6334-.3767.8332-.6865c.2013-.3114.3001-.678.2826-1.0484s-.1505-.7261-.3803-1.0172c-.2532-.3242-9.0662-11.7447-10.3588-20.8776h13.3039c.4712 0 .9231-.1872 1.2564-.5204.3332-.3332.5204-.7851.5204-1.2564.0024-.2355-.0422-.4692-.131-.6874s-.2201-.4166-.3863-.5836-.3638-.2993-.5816-.3892-.4512-.1356-.6868-.1344zm-30.8454-8.12 9.4748 8.12h-18.2878c3.9579-2.07 6.9518-4.8152 8.813-8.12z" fill="#111042"/></svg>