<svg fill="none" height="100" viewBox="0 0 100 100" width="100" xmlns="http://www.w3.org/2000/svg"><path d="m16.8253 44.4892c-.3668-.0138-.7327.0468-1.0756.178-.3428.1312-.6555.3304-.9194.5856s-.4735.5611-.6162.8994c-.1427.3382-.2155.7017-.2141 1.0688 0 1.5992 1.1772 2.6963 2.8385 2.6652.3664.009.7306-.0576 1.07-.1957s.6468-.3448.9027-.607c.256-.2622.4551-.5743.585-.9169s.1876-.7084.1698-1.0744c-.0406-.7009-.3466-1.36-.8556-1.8435-.5091-.4835-1.183-.755-1.8851-.7595z" fill="#282749"/><path d="m84.8373 49.5574c-.4677-.0551-.9381.0777-1.3079.3692-.3698.2916-.6087.7179-.6643 1.1855-.2488 2.0433-1.5504 7.6847-4.5887 9.2794-1.3859.7285-3.065.5552-5.135-.5331-3.8602-2.0344-5.8325-5.2993-7.9202-8.7552-2.7941-4.6242-5.9213-9.808-14.0102-11.4427.4042-.5286.8085-1.0616 1.2172-1.6124l.0488-.0756c2.07-3.1094 6.1433-7.9601 10.1633-5.4192 1.2459.8454 2.2123 2.0421 2.7763 3.4381.5553 1.3326.4932 2.221.4 2.4609-.3791.2533-.6463.6427-.7464 1.0875-.1.4449-.0253.9111.2089 1.3024.1197.2005.2778.3753.4652.5147.1875.1393.4004.2404.6269.2973.2265.057.4621.0687.6932.0345.231-.0341.4529-.1135.6533-.2336 1.3814-.8306 1.9677-2.5319 1.6124-4.673-.5642-3.3848-3.3627-7.4582-7.4493-8.3288-2.9274-.6308-7.4405.1689-12.3356 7.516-9.9235 13.3971-15.9913 15.7425-18.732 15.9513-1.8924.1421-2.7408-.6753-2.7763-.7108l.0356.04-2.6653 2.3543c.1777.1999 1.7768 1.8879 4.9618 1.8879h.3997c5.0817-.2221 11.083-4.4643 17.8838-12.6243 5.7524.644 8.6974 3.0428 11.0072 6.1789-2.563.613-9.4659 2.7584-11.8735 8.4797-1.8079 4.2999-.6485 9.4705 3.4471 15.365.1642.2352.3828.4272.6372.5594.2545.1323.5374.201.8243.2002.3618.0005.715-.1095 1.0126-.3153.1917-.1333.3553-.303.4813-.4994.1261-.1965.2123-.416.2536-.6457.0412-.2298.0368-.4654-.013-.6935-.0499-.228-.1443-.4441-.2777-.6357-3.3492-4.824-4.3931-8.844-3.1094-11.9445 2.1411-5.1128 10.0213-6.5432 10.159-6.5698.1722-.03.3386-.0869.493-.1688l.4666.7685c2.2476 3.7224 4.5708 7.5514 9.3283 10.0656 1.5238.861 3.2343 1.3381 4.9838 1.3903 1.2077.0025 2.3977-.2919 3.4649-.8573 2.301-1.2127 4.0867-3.638 5.3305-7.2138.5333-1.5571.914-3.1623 1.1369-4.793.0285-.2333.0105-.4698-.0531-.696s-.1715-.4376-.3173-.6219c-.1459-.1842-.3267-.3377-.5323-.4515-.2055-.1139-.4317-.1858-.6652-.2117z" fill="#282749"/><path d="m42.1492 38.3902c1.5612-.0093 3.0554-.6348 4.1577-1.7404 1.1022-1.1056 1.7233-2.6019 1.728-4.163-.0444-3.7802-2.754-6.5565-6.3254-6.4855-.811.0133-1.6116.1864-2.3557.5094s-1.4171.7896-1.9807 1.373-1.0066 1.2722-1.3037 2.027-.4425 1.5607-.4278 2.3717c.0311 3.4204 2.9317 6.1389 6.5076 6.1078z" fill="#111042"/></svg>