<svg fill="none" height="100" viewBox="0 0 100 100" width="100" xmlns="http://www.w3.org/2000/svg"><path d="m36.4777 36.0485c2.4298-1.6568 2.8873-5.1261 1.0972-7.5514-1.6036-2.1278-4.6419-3.0828-7.5869-1.1328-2.3277 1.5414-2.914 5.4194-1.0972 7.6049 2.03 2.4431 4.8773 2.9228 7.5869 1.0793z" fill="#282749"/><path d="m67.9853 36.0485c2.7096 1.8435 5.5569 1.3638 7.5869-1.0793 1.8168-2.1855 1.2304-6.0635-1.0972-7.6049-2.9495-1.95-5.9877-.995-7.5869 1.1328-1.7901 2.4253-1.3326 5.8946 1.0972 7.5514z" fill="#282749"/><g fill="#111042"><path d="m43.7094 50.0633c-4.7485-2.0079-11.4426-.3776-14.703.644.0784-2.3505.7804-4.6378 2.0343-6.6275 17.5327-5.5836 20.7221-9.2217 21.5706-11.4916.239-.6556.3142-1.3597.219-2.0511-.0952-.6913-.358-1.349-.7654-1.9156l-.0621-.1022c-.1417-.4043-.4247-.7439-.7969-.9561-.3722-.2123-.8086-.2829-1.2287-.1988-.2291.0456-.4469.136-.641.2659s-.3606.2967-.4902.491c-.1295.1944-.2195.4123-.2648.6414-.0452.2291-.0449.465.0011.694.0798.3704.2306.7218.4442 1.0349.2976.4842.3332.6042.2399.8529-.3332.8884-2.834 4.251-20.9441 9.8569-9.7725 3.0295-16.6089 3.0206-19.7316 0-2.96728-2.8873-1.81679-7.8091-1.77681-7.9957.14032-.4453.09969-.928-.11311-1.3437-.21281-.4156-.5806-.7308-1.02397-.8773-.22137-.0738-.45512-.1033-.68788-.0868-.23277.0166-.46008.0787-.6688.1831s-.39478.2488-.54767.4251c-.15288.1763-.26956.3811-.34334.6024-.02221.0667-1.93677 6.9296 2.50526 11.4738 2.24766 2.2965 5.61032 3.447 10.04792 3.447 3.5261-.0819 7.0277-.6103 10.421-1.5725-4.9085 13.8681 9.4927 33.6441 10.1634 34.5547.1655.2235.381.4051.6294.5301.2485.125.5228.1899.8009.1895.3792.0016.7486-.12 1.0527-.3465.3792-.2793.632-.6978.7028-1.1634s-.0462-.9403-.3252-1.3197c-2.863-4.0536-5.3069-8.3875-7.2938-12.9352-1.3327-3.1094-2.5897-6.854-3.0205-10.5454 2.9628-1.035 9.3859-2.6653 13.1839-1.0661.4442.1821.5241.3331.5241.3331.2221.6885-2.1143 3.8647-6.6008 6.9786-.1917.1332-.3553.3029-.4814.4994-.1261.1964-.2122.4158-.2534.6456-.0413.2297-.0369.4654.013.6935.0498.2281.1442.444.2776.6356.1637.236.3822.4288.6367.5619.2545.133.5375.2024.8247.2021.3604-.0004.7119-.1104 1.0083-.3153 2.0078-1.3904 8.5287-6.2189 8.1156-10.2479-.0622-.8395-.5242-2.3675-2.6519-3.2781z"/><path d="m70.1173 71.3404c-.2038-.1144-.4281-.1873-.6602-.2148-.232-.0275-.4672-.009-.6921.0546-.2249.0635-.435.1708-.6184.3157-.1833.1448-.3363.3245-.4501.5285-2.0522 3.6825-4.2776 5.4993-4.3221 5.5304-.368.2926-.6051.7193-.6592 1.1864s.0791.9366.3705 1.3056c.1664.2106.3784.3807.6199.4977.2416.1169.5065.1776.7749.1775.3992.0015.7872-.1316 1.1016-.3776.111-.0889 2.7851-2.221 5.2193-6.5875.2295-.4112.2864-.8967.1581-1.3498-.1282-.4531-.4312-.8368-.8422-1.0667z"/><path d="m93.8555 19.4665c-.1732-.1586-.3763-.2814-.5973-.3611s-.4555-.1148-.6902-.1032c-.2346.0115-.4647.0695-.6768.1705-.2121.1011-.402.2432-.5588.4181-.3122.3486-.4742.8064-.451 1.2738.0233.4675.23.9068.5754 1.2227.0355.0355 3.6025 3.789 2.4431 7.8268-1.1994 4.1932-7.1073 7.587-17.1152 9.8169-18.5056 4.1311-22.339 2.4608-23.072 1.8523-.2087-.1732-.2354-.2932-.2176-.8617.0348-.3801-.0044-.7633-.1155-1.1283-.0738-.2214-.1905-.4261-.3434-.6023-.1529-.1763-.3389-.3208-.5476-.4252-.2088-.1043-.4361-.1666-.6688-.1831-.2328-.0166-.4665.0129-.6879.0867-.4058.1363-.7487.4145-.9658.7833-.217.3689-.2937.8037-.2158 1.2245-.0024.04-.0024.08 0 .12-.0736.6945.024 1.3964.2842 2.0445.2601.6481.675 1.2227 1.2084 1.6735 1.0039.8307 2.7807 1.6702 7.0051 1.6702 3.1095 0 7.6091-.4443 14.1078-1.7324-.4022 1.8061-1.4334 3.4105-2.9094 4.5265-1.9056 1.3725-4.562 1.7767-7.8846 1.1815-5.828-1.0394-10.0791.4442-11.3673 3.9978-1.4969 4.1222 1.6569 9.2749 7.8491 12.8241.0977.0577 8.0934 4.5842 15.4228 4.5842 1.6869.0277 3.3637-.2678 4.9396-.8706 2.8518-1.1327 4.784-3.3315 5.7435-6.5342 3.2915-10.9718-2.0967-17.9236-6.4499-20.8509 11.4649-2.6119 18.0259-6.8007 19.5007-12.4376 1.5813-6.1567-3.4915-11.1629-3.5448-11.2073zm-12.9308 43.4919c-.6441 2.141-1.839 3.5314-3.6558 4.2555-5.3704 2.141-14.49-1.9146-17.2618-3.5048-5.0417-2.8918-6.9962-6.5476-6.281-8.5243.4753-1.3015 2.1366-2.0033 4.5486-2.0033.9597.0092 1.9168.1013 2.8607.2753 4.3043.7685 7.8669.1644 10.5854-1.7768 1.9078-1.4127 3.3184-3.3941 4.029-5.6591 2.4875 1.6524 8.231 6.7519 5.1749 16.9241z"/></g></svg>