<svg fill="none" height="100" viewBox="0 0 100 100" width="100" xmlns="http://www.w3.org/2000/svg"><path d="m38.2811 30.1491c-1.9812-2.3241-1.3385-6.4431 1.1936-8.087 3.2037-2.0737 6.5089-1.0581 8.2485 1.2093 1.9329 2.5791 1.4496 6.2636-1.1936 8.0302-2.9428 1.9556-6.0402 1.4455-8.2485-1.1525zm18.9277.2125c2.9476 1.9603 6.0451 1.4502 8.2534-1.1478 1.9763-2.3241 1.3385-6.4478-1.1936-8.0869-3.2085-2.0737-6.5138-1.0582-8.2534 1.2045-1.9474 2.5838-1.4496 6.2683 1.1936 8.0302zm25.7169 12.0832c-4.4166-6.9107-15.2601-9.7024-32.2259-8.3042-27.4178 2.2673-33.0231 6.2116-34.8497 8.975-1.411 2.1351-.7151 4.0576-.3817 4.9835l.0773.2172c.045.4622.2625.892.611 1.2074s.8036.4943 1.2784.5026h.0338c.5069.0001.9934-.1944 1.355-.5417.3615-.3472.569-.8193.5779-1.3147-.0119-.4561-.1103-.9062-.29-1.3273-.2802-.7842-.3624-1.1526 0-1.6769.7635-1.1573 4.0639-3.6703 18.0772-5.7298-.8118 4.1851-.8456 9.3339-.4832 14.445-.7103 2.9711-3.3052 10.8928-7.2482 13.7837-.1681.1528-.375.2588-.5992.307-.9665-.2079-2.5466-4.7709-2.9622-9.7969-.0201-.2476-.0899-.4889-.2055-.71-.1156-.2212-.2747-.4179-.4682-.5789-.1934-.161-.4174-.2832-.6591-.3595-.2418-.0763-.4966-.1052-.7498-.0852-.2533.0197-.5001.088-.7263.201s-.4275.2685-.5922.4576-.2897.408-.3678.6443c-.078.2364-.1076.4854-.0871.733.2126 2.5886 1.2177 11.1715 5.2139 12.9334.5046.2211 1.0513.3354 1.6043.3354 1.0589-.0324 2.0776-.4042 2.8993-1.0581 2.5175-1.8517 4.4407-4.9363 5.8372-7.9122.9955 7.3076 2.3098 13.0846 2.4161 13.5853.0954.4183.3334.7925.6749 1.0612.3416.2687.7664.4158 1.2049.4174.1445-.002.2886-.0178.43-.0473.4979-.1125.93-.4133 1.2016-.8364.2717-.4232.3609-.9343.2481-1.4215-.058-.2504-5.6005-24.6812-2.5369-36.6463 2.8751-.3496 6.1175-.6849 9.7803-.9872 3.0222-.2589 6.056-.3662 9.0894-.3213 10.0219 14.2089-7.978 37.0054-8.1616 37.2368-.3154.3942-.4579.8946-.3963 1.3914s.3223.9495.7249 1.2586c.3393.2597.7578.401 1.1887.4015.2932.0003.5826-.0646.8463-.1899.2637-.1252.4948-.3074.6759-.5328 3.4206-4.4527 6.2808-9.2915 8.5191-14.412.7769-1.79 1.4465-3.6227 2.0053-5.4889 1.2371 1.1526 2.9477 2.7681 5.0883 4.8607 3.3053 3.231 1.1018 10.6708-.0241 13.2641-.0997.2282-.1524.4735-.1551.7217s.0446.4944.1393.7247.2348.4402.4125.6175c.1776.1773.3893.3187.6229.416.2399.0999.4979.1513.7586.1512.3789.0001.7494-.1087 1.0656-.3128.3161-.204.564-.4944.7127-.8351.2078-.4724 5.0254-11.7242-.7973-17.4209-3.3826-3.3066-5.7117-5.4512-6.8134-6.4431 1.0051-5.7251.4155-10.8362-1.7734-15.1158 7.3062.7227 12.3075 2.8342 14.7043 6.3155 3.2907 4.7237.7104 10.6425.5944 10.8976-.2427.4291-.3053.9335-.1746 1.4069.1308.4733.4446.8784.8752 1.1297.2927.1698.6261.2611.9665.2645.3373-.002.6682-.0902.9598-.2559.2916-.1658.5338-.4032.7025-.6888.7441-1.1668 3.4984-8.3278-.4446-14.497z" fill="#111042"/></svg>