<svg fill="none" height="100" viewBox="0 0 100 100" width="100" xmlns="http://www.w3.org/2000/svg"><g fill="#282749"><path d="m84.5047 65.9618c-.2182-.04-.4404-.0535-.6618-.04-3.1095.0666-6.2189.231-9.3017.1777-2.3555.0305-4.7082-.1749-7.0229-.6131-3.8823-.8617-6.8363-3.3714-9.4393-6.2676-2.0032-2.2804-3.6655-4.839-4.9351-7.5959-2.2946-4.9481-6.3297-8.8787-11.3361-11.0429-.653-.2887-1.2749-.6309-2.2211-1.0973 1.5103-1.0972 2.7141-2.07 3.9979-2.8918 2.3609-1.5724 5.162-2.3505 7.9957-2.221.8902.1196 1.7705.3038 2.6341.5509-.1555 1.4215-.2665 2.5853-.4086 3.7447-.0622.5108-.2266 1.0127-.2666 1.5235-.0889 1.2527.2977 1.9056 1.1639 2.0744s1.6879-.2664 1.9589-1.3636c.4514-1.6329.7488-3.3045.8884-4.9928.1466-2.723-1.2615-4.4422-3.9668-4.6332-2.2048-.1469-4.4192-.044-6.6009.3066-3.7136.5819-6.5742 2.9051-9.3816 5.2016-3.4825 2.8563-6.8453 5.859-10.7498 8.1645-1.5992.9461-3.2515 1.7412-5.1439 1.9056-1.4703.1288-2.7807-.0889-3.7624-1.3682-.3796-.3766-.8103-.6981-1.2793-.955-1.9057 1.1327-2.0967 1.8168-.9773 3.1671.8461 1.0376 1.9954 1.7847 3.2871 2.1367 1.8701.5242 3.6514.1644 5.4504-.2887 3.3094-.8351 5.9924-2.8118 8.6932-4.753 1.1282-.8084 2.221-1.6835 3.2205-2.4564 5.5881 1.3726 10.4077 4.6286 11.4783 7.7602-.7019.4798-1.4304.9729-2.1545 1.4748-2.3854 1.6524-4.5886 3.5047-6.1122 6.0189-2.3099 3.7935-2.3499 7.7825 1.0394 11.3672.7996.844 1.7102 1.5902 2.9895 2.7674h-2.4165c-3.3271 0-6.6631 0-9.9769.0311-.5875-.0096-1.1734.0621-1.7412.2132-.1648.0367-.3206.1057-.4584.203-.1379.0974-.255.2211-.3447.3641s-.1501.3023-.1777.4688-.0218.3368.0169.501c.0796.2664.2118.5142.3888.7286s.3951.3911.6417.5197c.6311.1991 1.2951.273 1.9545.2176 9.0885.0178 18.1784.0267 27.2698.0267h10.8652c1.7768 0 1.8746-.1155 2.4921-1.8079-.4132-1.5325-1.6347-1.4659-2.8474-1.4659-5.4666 0-10.9349 0-16.4045 0-.7348.0589-1.4741-.0179-2.1811-.2266-2.8917-1.1771-5.6103-2.6652-7.7558-5.0017-1.9412-2.1233-2.2211-3.9179-.8351-6.4676 1.7768-3.2205 4.5931-5.2727 7.9113-7.1073 2.4742 5.0373 5.5881 9.3772 10.4033 12.9308-3.9002.1111-7.3427-.0489-11.0207.0799-.0622 1.0439-.1066 1.8436-.1466 2.5143 1.2082.8884 2.3187.8884 3.4292.8884 8.8841-.0266 17.7371-.04 26.6034-.0889 1.6969 0 3.3894-.1376 5.0863-.2309.3758.0131.7424-.1174 1.0254-.3649.283-.2476.4612-.5935.4982-.9677.0339-.4049-.087-.8076-.3385-1.1267s-.6148-.5308-1.0164-.5924z"/><path d="m30.8852 38.3901c1.5611-.0093 3.0554-.6348 4.1577-1.7404 1.1022-1.1056 1.7232-2.6019 1.7278-4.163-.0444-3.7758-2.754-6.5564-6.3253-6.4854-.8114.0133-1.6122.1866-2.3566.5098-.7444.3233-1.4176.7902-1.9812 1.3741s-1.0066 1.2732-1.3034 2.0285-.4417 1.5617-.4264 2.3731c.0267 3.4159 2.9272 6.1344 6.5074 6.1033z"/></g></svg>