<svg fill="none" height="100" viewBox="0 0 100 100" width="100" xmlns="http://www.w3.org/2000/svg"><g fill="#282749"><path d="m81.1349 56.5521c-4.4954 2.11-9.2084 3.9978-14.2146 5.0772-4.9396 1.0528-9.8526 2.2699-14.9876 1.8835v-12.3356c.722-.1847 1.4529-.333 2.1899-.4442 5.637-.5641 10.9808-2.1988 16.1869-4.3532.6663-.2754 1.2883-.6618 1.8124-.9372.4442-1.4082.08-2.2211-1.3326-2.6653l-1.8834.773c-7.827 3.2293-15.9072 4.8862-24.4315 4.1977-5.2463-.3618-10.3519-1.8561-14.9654-4.3799-.4322-.2127-.8773-.3981-1.3326-.5553-1.2971.4442-1.7103 1.2305-1.2661 2.5986.8091.5743 1.6499 1.1023 2.5187 1.5814 3.9027 1.945 8.1093 3.2084 12.4378 3.7358 2.1011.2398 4.2111.4441 6.3389.6351v12.2468c-5.2461.1821-10.1901-.8573-15.1653-1.8745-5.0995-1.0484-9.8436-3.0117-14.6589-5.3083l-1.3815 1.577c.1821 1.4037 1.0484 1.7367 1.8435 2.1143 8.6726 4.1699 18.097 6.548 27.7097 6.9919 4.7963.1866 9.5996-.0722 14.348-.7731 7.2451-1.0349 14.0014-3.5224 20.6335-6.4541.7685-.3421 1.4882-.7774 1.3993-1.7769-.0888-.9994-.7285-1.4214-1.7991-1.5547z"/><path d="m49.4669 45.3579c.8345.0149 1.6634-.14 2.4361-.4554.7728-.3154 1.4734-.7846 2.0592-1.3791.5858-.5946 1.0446-1.302 1.3486-2.0794.3039-.7774.4466-1.6084.4193-2.4426-.0257-1.6098-.687-3.1442-1.8394-4.2684-1.1525-1.1242-2.7028-1.747-4.3127-1.7328-3.5536 0-6.1832 2.5764-6.1832 6.1078s2.6029 6.2365 6.0721 6.2499z"/></g></svg>