<svg fill="none" height="100" viewBox="0 0 100 100" width="100" xmlns="http://www.w3.org/2000/svg"><g fill="#282749"><path d="m81.4885 21.7747c-.0267-1.9278-.7951-2.3054-2.9539-1.4659-.0933 2.07-.1912 4.2378-.2889 6.4721h-2.5852v-2.7275c0-1.4791.0444-2.9583-.0356-4.442.0077-.2047-.025-.4089-.0967-.6008s-.1808-.3676-.3208-.5172c-.14-.1495-.3084-.2698-.4952-.3539s-.3882-.1303-.593-.136c-.205-.0139-.4108.014-.6047.0818-.1939.0679-.3718.1743-.5234.313-.1515.1387-.2735.3068-.3583.4939s-.1308.3894-.1351.5948c-.0897.9552-.1192 1.9151-.0887 2.874v4.442h-44.2029c-.6974-2.8429.2887-5.7746-.5819-8.4398-2.0523-.422-2.6251-.0799-2.754 1.5192-.0444.5908 0 1.1816 0 1.7768v5.1084h-2.5808c-.4442-2.2966.2266-4.5487-.5197-6.8186h-2.221c-.8884 1.8968-.4133 3.7669-.4844 5.5703-.071 1.919-.0533 3.8468 0 5.7747.0667 1.8168-.3019 3.669.2445 5.3925.9639.6397 1.7768.6264 2.7941-.2753v-6.2188h2.7272v2.3409c0 1.4792-.0399 2.9584.0356 4.442.0977 1.8746.955 2.2699 2.8695 1.3326.6041-2.6163-.1464-5.3837.4844-8.1467h2.2876c.0755 5.5792 1.2836 10.6609 4.9083 14.9297s8.5556 6.0811 14.1703 6.5076v13.6592c-3.8113 3.6647-5.104 8.3332-5.2684 13.4416 0 .5908-.0489 1.1816 0 1.7768.0711 1.0972.7108 1.8079 1.5504 1.7768.8395-.0311 1.4347-.6886 1.5369-1.8257.0489-.5864-.0001-1.1816.031-1.7768.1599-3.0606.7863-6.0056 2.3677-8.6708.5671-.8238 1.1906-1.6075 1.8657-2.3454.4664.5686.7639.8883 1.0127 1.2437 1.4881 2.1233 2.0346 4.5709 2.3188 7.0807.1733 1.5369.2087 3.1094.3464 4.633.0933.9994.6751 1.608 1.4747 1.6524.8884.0489 1.5638-.6174 1.6215-1.719.0547-.8885.0352-1.78-.0579-2.6652-.5597-4.8863-.9548-9.808-5.2547-12.993v-13.2417c.8217-.1288 1.3902-.2398 1.9677-.302 7.4759-.7996 13.0773-5.597 14.9075-12.8553.7243-2.6281.9725-5.3645.7329-8.08.2037-.1363.4269-.2411.6619-.3109.3686-.0069.737.0169 1.1017.071v2.4121c-.04 1.3992-.1555 2.8029-.1378 4.2021.0178 1.3993.6263 2.1144 1.7057 2.1055 1.0794-.0088 1.5549-.6619 1.5948-2.1944.04-1.7013 0-3.4026.0399-5.0994.0475-.5368.132-1.0696.2532-1.5947l2.1854.191c.6441 2.3276-.2663 4.6242.631 6.6408 2.1721.4442 2.6961.1245 2.7183-1.7279.04-4.4376.0534-8.8707-.0043-13.3083zm-17.6216 21.6105c-1.7768 2.221-4.2021 3.4913-6.894 4.1754-4.1698 1.0924-8.5677.9458-12.6555-.422-1.8358-.589-3.5302-1.5507-4.9771-2.8249s-2.6151-2.8333-3.4315-4.5799c-1.4458-2.9811-2.1861-6.255-2.1634-9.5681h33.5507c.4442 4.9084-.3864 9.3549-3.4292 13.2239z"/><path d="m51.3404 33.5327c-1.6362.0199-3.1986.6839-4.3486 1.848-1.1499 1.1641-1.7949 2.7346-1.7948 4.3709.0152 1.6394.6773 3.2063 1.8419 4.3601s2.7376 1.8011 4.377 1.8011c1.6377-.0176 3.2025-.6805 4.3544-1.8449s1.7979-2.7362 1.7978-4.3741c-.0152-1.6408-.6783-3.2091-1.8449-4.3632-1.1665-1.1541-2.7419-1.8003-4.3828-1.7979z"/></g></svg>