<svg fill="none" height="100" viewBox="0 0 100 100" width="100" xmlns="http://www.w3.org/2000/svg"><g fill="#282749"><path d="m79.7635 70.2868c-.1333-.0622-11.2474-5.4592-19.2964-21.2638l7.9957-7.3693c2.4298-2.0478 3.5093-4.8418 2.8163-7.3115-.2908-1.0113-.877-1.9127-1.6835-2.5886-.8064-.6758-1.7964-1.0954-2.8429-1.2049-4.5665-.6619-7.9958 2.5052-11.0519 5.2993-.5864.5374-1.1949 1.0972-1.7769 1.6125-1.3681 1.186-3.0561 3.598-5.1927 6.663-2.9495 4.2154-8.4399 12.0643-11.1452 11.8156-.2328-.0214-.4674.0035-.6907.073-.2232.0695-.4306.1824-.6101.3322-.1795.1497-.3276.3335-.436.5407-.1083.2071-.1747.4337-.1954.6666-.042.4688.1038.935.4053 1.2965.3015.3614.734.5884 1.2027.6312.1421 0 .2843.0223.4442.0223 4.2777 0 8.6798-5.7968 13.9526-13.326.8084-1.1549 1.5946-2.2787 2.3098-3.2559.6841 1.8701 1.417 3.6335 2.181 5.2993l-26.0526 24.009h-8.32c-.4712 0-.9231.1871-1.2564.5203-.3332.3332-.5204.7852-.5204 1.2565 0 .4712.1872.9231.5204 1.2563.3333.3332.7852.5205 1.2564.5205h9.7059l26.297-24.2356c.6871 1.3 1.3889 2.5349 2.1056 3.7047-2.8341 1.568-8.6133 4.9172-10.7366 7.2848l-.1376.1732c-.5423.7279-.9054 1.5734-1.0598 2.4679-.1543.8945-.0956 1.8128.1714 2.6804 1.4481 4.6108 8.5998 7.3782 9.4127 7.6758.196.0736.4036.1113.6129.111.3629 0 .717-.1112 1.0148-.3185.2978-.2072.5249-.5007.651-.8409.1639-.4412.1461-.9294-.0497-1.3574-.1957-.4281-.5532-.761-.9941-.9257-2.4343-.8884-6.561-3.176-7.2584-5.4103-.1025-.3329-.1222-.6859-.0571-1.0281.065-.3422.2128-.6633.4303-.9354 1.7413-1.8656 6.9784-4.9483 9.9635-6.5918 7.6803 11.0339 15.9514 15.0583 16.4356 15.2893.2376.1117.497.1693.7596.1687.3374 0 .6677-.0961.9525-.2771.2848-.1809.5122-.4391.6556-.7444.1015-.2145.1589-.4471.1691-.6841.0101-.2371-.0273-.4737-.1101-.696-.0828-.2224-.2094-.4259-.3721-.5986-.1627-.1726-.3583-.3109-.5753-.4067zm-23.1432-30.481c.502-.4442.9995-.8884 1.4792-1.3326 2.8119-2.5852 5.2416-4.824 8.1378-4.402.363.0195.7117.1483 1.0002.3694.2886.2212.5036.5244.6168.8699.2354.8395-.08 2.3054-1.7325 3.6735-.0107.013-.0225.0249-.0354.0356l-.0401.031-7.1783 6.6142c-.7907-1.8345-1.5459-3.789-2.2477-5.859z"/><path d="m47.8868 37.2466c.8042.0006 1.6006-.1574 2.3437-.4647.7432-.3074 1.4185-.7582 1.9874-1.3266.5688-.5685 1.0201-1.2434 1.328-1.9864.3079-.7429.4663-1.5392.4663-2.3434.0006-.8046-.1574-1.6014-.465-2.3448-.3076-.7435-.7588-1.4189-1.3277-1.9879-.5689-.5689-1.2445-1.02-1.988-1.3277-.7434-.3076-1.5402-.4657-2.3447-.4651-.8042 0-1.6007.1584-2.3436.4663s-1.4179.7592-1.9863 1.3281c-.5685.5688-1.0193 1.2441-1.3267 1.9873-.3073.7431-.4652 1.5396-.4646 2.3438 0 1.6234.6448 3.1803 1.7928 4.3282 1.1479 1.148 2.7049 1.7929 4.3284 1.7929z"/></g></svg>