<svg fill="none" height="100" viewBox="0 0 100 100" width="100" xmlns="http://www.w3.org/2000/svg"><path d="m88.6295 30.0461c-.2003-.4264-.5618-.7558-1.005-.9158-.4431-.1599-.9316-.1372-1.3581.0629-.493.231-8.9551 4.3444-16.7109 15.676-3.7047-.422-8.8396-1.5325-10.2833-2.9895-.2215-.3201-.3721-.6839-.4418-1.0669s-.057-.7765.0375-1.1541c.6974-3.065 5.4149-6.3255 7.174-7.3249.4098-.2322.7108-.6177.8365-1.0717.1258-.454.0662-.9393-.1658-1.3493-.2322-.4099-.6176-.7108-1.0716-.8366-.4539-.1257-.9393-.0661-1.3493.1658-1.3657.8016-2.6654 1.7107-3.8867 2.7186-2.803 2.3188-4.4821 4.6375-5.0018 6.903-.2076.881-.2242 1.7963-.0488 2.6843.1755.8879.5389 1.728 1.066 2.4639l.1377.1733c2.1233 2.3676 7.4981 3.5048 10.883 3.9978-2.2282 3.7628-4.092 7.7298-5.5659 11.8469-3.6203-2.763-10.2166-7.587-14.4676-10.7141-1.7991-1.3327-3.3671-2.4654-3.7092-2.7275-.1026-.0884-.2143-.1659-.3331-.231-.3963-.2168-.8603-.2745-1.2976-.1615-.4373.1131-.8152.3884-1.0567.7701-.2665.4176-.7285 1.5103.7152 2.5853l.7951.5907 2.7851 2.0434c5.2371 3.8379 14.0058 10.261 16.3112 12.1533.0586.048.121.0911.1865.1289l.0666.0444c.0986.0567.2029.1029.3111.1378.0477.0159.0967.0277.1465.0354.038.011.0765.0199.1155.0267.0952.0177.1919.0266.2888.0267.115-.0022.2295-.0157.3419-.04h.0889c.0881-.023.1741-.0527.2576-.0889l.08-.0311c.1018-.0497.1985-.1091.2887-.1776l.0622-.0489c.0779-.0654.1508-.1367.2177-.2132 0 0 0-.0001.0355-.0312-.0015-.0103-.0015-.0207 0-.031.0608-.0772.1158-.1589.1644-.2443-.0008-.0104-.0008-.0208 0-.0311.0457-.0887.0843-.1807.1155-.2754 7.5914-23.3695 23.1918-31.0276 23.3517-31.0942.2174-.0954.4135-.2334.5767-.4059s.2902-.376.3734-.5983c.0832-.2224.121-.4591.1111-.6964-.0098-.2372-.067-.4701-.1684-.6848z" fill="#282749"/><path d="m52.1429 75.0791c3.3806 0 6.1211-2.7405 6.1211-6.1211s-2.7405-6.1211-6.1211-6.1211-6.1212 2.7405-6.1212 6.1211 2.7406 6.1211 6.1212 6.1211z" fill="#282749"/><g fill="#111042"><path d="m44.2139 54.908c-2.1233-2.3677-7.5026-3.5004-10.8874-3.9979 2.23-3.7641 4.0952-7.7325 5.5703-11.8514 3.6158 2.763 10.2167 7.5871 14.4588 10.7099 1.7991 1.3326 3.3716 2.4697 3.7181 2.7318.1009.0919.2128.1709.3331.2354.2597.139.5494.2122.844.2132.3003.0008.596-.0745.8593-.219s.4858-.3534.6465-.6072c.2665-.4176.7285-1.5102-.7151-2.5852l-.7996-.5909c-.6752-.5019-1.6436-1.2082-2.7852-2.0478-5.2371-3.8335-14.0012-10.2566-16.3022-12.149-.0355-.0266-.0711-.0445-.1066-.0667l-.1688-.1155-.191-.0843-.1155-.0488c-.0729-.021-.1471-.0374-.2221-.0489h-.1244c-.0651-.0045-.1304-.0045-.1954 0h-.1511l-.1776.0355c-.0527.0057-.1048.0161-.1556.031-.0624.0191-.1232.0429-.182.0712-.0455.0151-.09.0328-.1333.0532-.0505.0285-.0994.0598-.1465.0934-.0509.0295-.0999.0621-.1467.0977l-.0932.0888c-.0577.0488-.1112.1022-.16.1599-.0266.0311-.0444.0667-.0666.0978s-.0844.1155-.1199.1777c-.0355.0621-.0533.1199-.0799.182-.0267.0622-.0356.0756-.0534.12-7.587 23.3697-23.1918 31.0278-23.3473 31.0944-.4256.2012-.754.563-.9131 1.0061s-.1358.9312.0647 1.3571c.144.3046.3716.5619.6564.742.2847.1801.6147.2756.9516.2753.261-.0001.519-.0578.7552-.1689.4975-.231 8.9551-4.3443 16.7108-15.676 3.7047.4442 8.8397 1.5369 10.2834 2.9939.222.3199.3729.6837.4427 1.0668.0697.3831.0565.7766-.0385 1.1542-.693 3.0606-5.4149 6.3256-7.174 7.3207-.4098.2321-.7107.6176-.8365 1.0715-.1258.454-.0661.9393.1659 1.3494.1569.2718.3829.4971.6552.6531.2723.1561.5812.2373.8951.2353.3108.0035.6171-.0747.8884-.2266 1.3651-.804 2.6648-1.7146 3.8867-2.723 2.803-2.3143 4.4865-4.6376 5.0018-6.903.2073-.8811.2237-1.7963.0482-2.6842-.1754-.888-.5387-1.7281-1.0655-2.4641z"/><path d="m48.6292 36.2429c3.3806 0 6.1211-2.7406 6.1211-6.1214s-2.7405-6.1215-6.1211-6.1215c-3.3807 0-6.1211 2.7407-6.1211 6.1215s2.7404 6.1214 6.1211 6.1214z"/></g></svg>