<svg fill="none" height="100" viewBox="0 0 100 100" width="100" xmlns="http://www.w3.org/2000/svg"><g fill="#282749"><path d="m76.5731 41.7843c-1.785-1.8714-3.7965-3.5128-5.9879-4.8862-7.5071-4.8152-15.7205-8.1423-24.0938-11.1051-1.7768-.6308-3.6203-1.1816-5.3305-1.7325-1.8479 1.6214-1.6703 2.6209.3775 3.4161 4.682 1.8123 9.3817 3.5846 14.0192 5.4991 2.7763 1.1461 5.4549 2.532 8.169 3.8069-1.6213 3.5936-5.9835 9.044-8.511 10.6609-5.1884-3.2694-10.9186-5.3617-16.831-7.0718-8.0801-2.3365-15.5962-3.7712-17.9283-3.2382-.8262 1.8346-.5908 2.3853 1.2038 2.794.5775.1288 1.155.2532 1.737.3509 7.5152 1.1704 14.8796 3.1605 21.9615 5.9346 8.7642 3.5181 15.4896 9.1462 19.252 17.9147 1.3637 3.1717 2.2921 6.5342 3.3449 9.8346.4442 1.3327.6396 2.7186.9639 4.1356 2.2921.6441 3.1361-.0001 2.7541-1.9723-.3433-1.9615-.7881-3.9037-1.3327-5.819-2.2921-7.4982-5.4193-14.5388-11.3584-19.9892-.1801-.2136-.3296-.4514-.4442-.7063 1.537-1.8168 3.0784-3.5092 4.4732-5.3304 1.3948-1.8213 2.6164-3.7047 3.9979-5.677 1.4081.924 2.8518 1.7014 4.0822 2.732 1.4037 1.1727 2.8962 2.3942 3.8735 3.9045 3.0028 4.6375 3.3405 9.5192.5997 14.4587-.3731.6663-.7285 1.3327-.2443 2.0612.5286.8129 1.2794.9106 2.2877.4975.3846-.4801.7377-.9846 1.0572-1.5103 3.256-6.05 2.7141-13.7747-2.0922-18.963z"/><path d="m70.576 33.3711c3.5848 0 6.2191-2.5053 6.2413-6.0545.0397-.8153-.0867-1.6302-.3716-2.3952s-.7222-1.464-1.2856-2.0548c-.5633-.5907-1.241-1.0608-1.9916-1.3817s-1.5585-.4859-2.3749-.4849c-3.7936.08-6.1923 2.4387-6.2945 6.0989-.0364.8169.0945 1.6325.3845 2.397s.733 1.4618 1.3019 2.049c.569.5873 1.2519 1.0521 2.0068 1.3661.755.3141 1.5661.4706 2.3837.4601z"/></g></svg>