<svg fill="none" height="100" viewBox="0 0 100 100" width="100" xmlns="http://www.w3.org/2000/svg"><path d="m85.4014 72.3959c-.965-.0854-1.9026-.3657-2.7562-.8238s-1.6054-1.0845-2.21-1.8414c-2.3943-2.9273-3.0472-8.0356-1.8834-14.7742 1.0661-6.1922-4.4421-9.6525-10.2746-13.3261-1.8523-1.1638-3.7713-2.3677-5.6547-3.7358l-.08-.0488c-.0522-.0354-.1072-.0667-.1644-.0934l-.1554-.071-.1599-.0533c-.0567-.0175-.1146-.0309-.1732-.04l-.16-.0222c-.0591-.0045-.1185-.0045-.1776 0h-.1644c-.0569.0042-.1134.0131-.1688.0266-.0573.0107-.1137.0255-.1688.0444-.0559.016-.1108.0353-.1643.0578l-.1467.071c-.0577.0311-.111.0667-.1643.1022s-.0533.0267-.0756.0445c-.0222.0177-.0532.0488-.0799.071l-.0621.0534c-2.0167 1.7013-1.5593 4.8862-1.0662 8.2311.4442 3.0428.9462 6.4854-.3509 8.5687-2.8918 4.6375-11.8914 3.2915-13.4639 2.8651-.2492-.1132-.5211-.1673-.7947-.158-.2735.0092-.5412.0815-.7822.2112l-1.0972.5909.1776 1.2304c.1822 1.2749 1.3104 1.5148 2.0611 1.6702 1.7553.3496 3.5408.5251 5.3305.5242 3.9357 0 8.9997-.8884 11.585-5.055 1.9856-3.185 1.3814-7.3161.8484-10.9586-.1979-1.2194-.3284-2.4487-.3909-3.6824 1.3326.8884 2.6652 1.7456 3.9756 2.5585 3.4115 2.1455 5.9614 3.8158 7.4006 5.5394-2.0478 1.3326-10.1591 6.7429-12.8154 9.7102l-.1378.1689c-5.095 7.3338-.4442 15.6182-.2265 15.9691.1562.2705.3809.495.6516.651.2706.156.5774.2379.8898.2374.3123.0016.6193-.0813.8884-.2399.4081-.2352.7061-.6228.8285-1.0775.1225-.4548.0593-.9396-.1755-1.3478-.04-.0667-3.718-6.5875 0-12.069 2.0478-2.2211 8.1824-6.4722 11.4251-8.6221-.0024.2621-.0263.5236-.0712.7818-1.3681 7.9557-.4441 13.9125 2.7008 17.706.9331 1.1339 2.0884 2.0648 3.3947 2.7355 1.3063.6708 2.7361 1.0671 4.2013 1.1647h.0221c.4652.0001.9118-.1823 1.2441-.5079.3322-.3256.5235-.7684.5328-1.2335.0071-.4697-.172-.9232-.4983-1.2611-.3264-.338-.7733-.533-1.243-.5424z" fill="#282749"/><path d="m39.1722 59.8917c-2.7407-3.0606-11.2915-8.7153-12.9928-9.8258 1.8301-2.8074 5.6546-5.4771 9.8701-8.4133l1.7768-1.2482c0 .5642-.0355 1.2393-.0888 1.9367-.1821 2.492-.4442 5.9035 1.7768 9.0263.9311 1.3402 2.1522 2.4534 3.5726 3.257 1.4203.8036 3.0034 1.277 4.6317 1.3849.4176.0355.8307.0534 1.2394.0534 2.0121-.0254 4.0065-.3811 5.9034-1.0529 1.6169-.5641 3.0117-1.0483 2.9318-2.5408-.0214-.3856-.1679-.7537-.4171-1.0487-.2493-.2949-.5878-.5006-.9644-.5859-.2523-.0581-.5141-.0604-.7673-.0066-.2532.0537-.4917.162-.6986.3175-1.6455.7502-3.4113 1.2014-5.2149 1.3326-3.2249.2088-5.6858-.8529-7.316-3.1628-1.4658-2.0833-1.2971-4.442-1.1283-6.7208.1688-2.2787.3377-4.6552-1.488-6.2188l-.0355-.0311-.0622-.0577-.0934-.0578c-.0533-.0356-.1021-.0756-.1598-.1067l-.1511-.071-.1643-.0622-.1688-.0444-.1599-.0311c-.0576-.0044-.1156-.0044-.1733 0-.0576-.0045-.1155-.0045-.1732 0l-.1644.0222c-.0571.0076-.1134.0194-.1687.0355-.0576.0152-.114.0346-.1689.0578-.0518.0169-.1022.0376-.1509.0621-.0587.0283-.1152.061-.1689.0978l-.0932.0533c-1.1727.8529-2.3721 1.688-3.5536 2.4965-6.974 4.8551-13.5614 9.4438-12.3976 16.209s.5108 11.847-1.8834 14.7743c-.6048.7567-1.3568 1.3829-2.2103 1.841s-1.7911.7385-2.756.8242c-.465.0093-.9079.2006-1.2334.5328-.3256.3322-.5079.7789-.5078 1.244 0 .4713.1872.9232.5204 1.2564.3333.3332.7852.5204 1.2564.5204 1.4654-.0967 2.8954-.4927 4.2018-1.1635s2.4615-1.6021 3.3941-2.7366c3.1627-3.7935 4.0732-9.7503 2.7006-17.7061-.0432-.2539-.067-.5108-.071-.7684 3.2515 2.1544 9.3593 6.3877 11.4026 8.6087 3.6913 5.4327.1643 11.7848 0 12.0735-.2334.4078-.2958.8916-.1734 1.3453.1223.4537.4195.8404.8263 1.0756.2693.1582.5761.241.8884.2399.3124.0004.6193-.0815.89-.2374.2706-.156.4952-.3805.6514-.651.2043-.351 4.8862-8.6354-.2266-15.9692z" fill="#282749"/><g fill="#111042"><path d="m50.0832 36.2465c1.6246 0 3.1826-.6454 4.3313-1.7942 1.1488-1.1487 1.7942-2.7067 1.7942-4.3313 0-.8042-.1585-1.6005-.4663-2.3434-.3079-.7429-.7592-1.4178-1.3281-1.9863-.5688-.5684-1.2442-1.0193-1.9874-1.3266-.7431-.3074-1.5395-.4653-2.3437-.4647-.8038 0-1.5998.1584-2.3424.466-.7427.3076-1.4174.7584-1.9858 1.3268s-1.0192 1.2431-1.3268 1.9858c-.3077.7426-.466 1.5386-.466 2.3424 0 1.6238.6447 3.1812 1.7925 4.3298s2.7047 1.7945 4.3285 1.7957z"/><path d="m50.0874 50.0435c3.3806 0 6.1211-2.7405 6.1211-6.1211s-2.7405-6.1211-6.1211-6.1211-6.1211 2.7405-6.1211 6.1211 2.7405 6.1211 6.1211 6.1211z"/></g></svg>