<svg fill="none" height="100" viewBox="0 0 100 100" width="100" xmlns="http://www.w3.org/2000/svg"><path d="m52.6205 32.9932c1.5587-.4446 2.8774-1.4894 3.6669-2.9051.7894-1.4156.9851-3.0865.5442-4.6462-.4447-1.5587-1.4895-2.8774-2.9052-3.6669-1.4156-.7894-3.0866-.9851-4.6463-.5441-1.5588.4446-2.8775 1.4893-3.6669 2.9049-.7894 1.4157-.9851 3.0867-.5442 4.6464.4436 1.5594 1.4883 2.8788 2.9043 3.6684 1.4159.7896 3.0874.9848 4.6472.5426z" fill="#282749"/><path d="m72.7384 76.7077-6.1566-27.2608c.3376-.1199.6573-.2487.9504-.3864 1.6525-.7773 1.2661-2.1011 1.1728-2.3587-.1517-.4186-.455-.765-.8498-.9706-.3949-.2057-.8524-.2556-1.2823-.1399-.1951.0508-.3799.135-.5464.2487l-.231.1066-1.3326-5.8057c-.1058-.4577-.3887-.8548-.7866-1.1046-.398-.2497-.8786-.3317-1.3368-.228-.4577.1058-.8547.3886-1.1044.7865-.2498.3979-.3319.8786-.2282 1.3368l1.3016 5.7746c-3.296.1111-8.2266-1.2926-12.642-8.8174-.039-.0606-.082-.1185-.1289-.1733-.0266-.0355-.0532-.0755-.0843-.111-.0413-.0434-.086-.0835-.1334-.12-.0379-.0378-.0777-.0734-.1197-.1066-.0489-.0355-.1024-.0621-.1512-.0932-.0489-.0311-.0932-.0622-.1421-.0844l-.1598-.0578c-.0578 0-.1067-.0444-.1644-.0577l-.1423-.0222c-.0686-.0157-.1384-.0247-.2087-.0267h-.1199c-.0814-.0042-.1629-.0042-.2443 0h-.0711c-.0926.0163-.1833.0417-.2709.0756l-.049.0221c-.0795.03-.1567.0656-.231.1066-.3095.1807-.5559.4521-.7062.7774-.013.0286-.0234.0584-.031.0889-.0328.0752-.0609.1524-.0844.231-.0025.0429-.0025.0858 0 .1287-.015.0718-.0256.1445-.0313.2177v.0222c-.8884 24.7866-8.8396 37.2465-8.9417 37.402-.1281.1951-.2164.4135-.2601.6428-.0436.2293-.0418.4649.0057.6934.0474.2285.1393.4455.2706.6384.1313.193.2994.3582.4946.4862.2888.1903.6269.2923.9728.2932.2949.0007.5854-.072.8452-.2116s.4807-.3416.6429-.5879c.2398-.3687 4.22-6.5476 6.983-18.8343 2.0522 1.2616 5.5213 3.3937 7.6757 4.7485l.1156.0667c1.3326.7196 1.6391 5.5081-1.3593 12.6243-.1831.4341-.1865.9232-.0091 1.3597s.5211.7847.9552.9679c.2189.0942.4547.1425.693.1421.3493-.0006.6905-.1042.9812-.2978.2908-.1936.518-.4685.6533-.7905.9054-2.2123 1.6203-4.4979 2.1367-6.8318 1.1327-5.3571.3509-8.813-2.3232-10.2789-2.643-1.6613-7.1694-4.442-8.7641-5.4148.702-3.837 1.2002-7.7085 1.4924-11.5982 4.1311 4.7752 8.6932 6.2944 12.4601 6.2944.3465 0 .6841 0 1.0172-.0444l6.1701 27.3185c.0887.3933.3083.7447.6231.9965.3148.2519.7061.3892 1.1092.3894.1315-.0019.2624-.0167.3909-.0444.4553-.1098.8491-.3949 1.0953-.7934.2462-.3984.325-.878.2195-1.3344z" fill="#282749"/><path d="m41.2622 54.6929c1.8035-9.4971 1.5546-16.4843 1.5413-16.7775v-.2531l-.0755-.2533c-.1688-.8528-.6886-3.4425-2.7186-4.673-.5824-.3389-1.2304-.5492-1.9009-.6166-.6704-.0674-1.3477.0095-1.9859.2257-3.7135 1.0794-3.7401 3.94-3.7623 6.2188.0392 1.246-.0953 2.4914-.3997 3.7002-.7063 2.452-1.928 3.9446-3.0029 5.255-1.3682 1.6746-3.2426 3.9622-.6974 6.9517 1.808 2.1188 5.1173 5.4193 8.2534 5.4193.3613.0007.721-.0456 1.0704-.1378 1.8923-.4886 3.1317-2.1943 3.6781-5.0594zm-4.5976 1.6391c-.8617.2266-3.1494-1.146-5.708-4.1444-.6219-.7329-.6219-.733.7418-2.3987 1.6834-1.8804 2.9358-4.1059 3.6692-6.5209.396-1.5174.5769-3.083.5375-4.6507 0-2.4254.1553-2.5542 1.1992-2.8562.1939-.0631.3959-.0975.5997-.1022.1564-.0074.3113.0329.4442.1155.3198.191.7641.7507 1.0795 2.3321v.1021c.0264 5.3088-.4721 10.6072-1.4881 15.818-.2665 1.5813-.7507 2.221-1.0838 2.3054z" fill="#111042"/></svg>