<svg fill="none" height="100" viewBox="0 0 100 100" width="100" xmlns="http://www.w3.org/2000/svg"><path d="m45.7572 58.2155c3.5204 1.7251 7.3199 2.8096 11.2206 3.2028 6.703.613 13.1084-.3199 19.1541-3.3316 2.1232-1.0572 4.1532-2.2921 5.5746-4.2733.364-.4553.6043-.997.6974-1.5725.0126-.2464-.0331-.4923-.1335-.7176-.1003-.2254-.2524-.4239-.4439-.5794-.5272-.1906-1.1015-.2078-1.6391-.0489-.3065.0666-.5553.4442-.7863.7463-1.3326 1.6391-3.0782 2.7407-4.935 3.6913-6.5564 3.3626-13.5083 3.8246-20.4823 2.0833-4.6019-1.146-8.9862-3.1583-13.5082-4.7974l5.6991-6.4588c1.9501.3066 3.8291.7152 5.7258.8885 3.3627.2798 6.6054-.5553 9.8081-1.4348.8139-.2516 1.6705-.3345 2.5175-.2436s1.6666.3537 2.4086.7722c.8584.565 1.6563 1.2169 2.381 1.9455 1.0128.8885 2.0478 1.0707 2.7496.4088.6352-.6041.5953-1.6303-.1865-2.5898-1.5115-1.9376-3.6619-3.2757-6.0679-3.7757-2.1366-.4442-4.0956 0-6.09.5552-4.5353 1.2482-9.0307 1.497-13.4194-.5463-2.6786-1.266-5.1154-2.9903-7.2005-5.0951-1.7057-1.6969-3.7446-2.6119-6.1877-2.412-3.4751.3159-6.7859 1.6251-9.5372 3.7713-.2621.1999-.3686.613-.5197.8884.7774 1.7769 1.2439 1.99 2.8208 1.2837s3.0605-1.4702 4.6463-2.061c2.5498-.9506 4.864-.7375 6.8718 1.4125 1.0484 1.1239 2.381 1.9768 3.607 2.9274.7463.5774 1.5325 1.0971 2.3764 1.7012-2.0425 2.9349-4.6193 5.4591-7.5958 7.4405-7.1428.5109-13.7037 2.3543-19.2829 6.712.2177 1.6658.2177 1.6658 1.6702 2.532.8618-.5331 1.6614-1.0528 2.4876-1.5325 8.2844-4.8152 16.7819-5.6814 25.5994-1.4926z" fill="#282749"/><path d="m81.7735 60.9385c-1.0616.8883-2.1721 1.8433-3.3182 2.7628-4.7308 3.8022-10.0123 5.8676-16.1912 5.1925-3.8261-.4495-7.5003-1.7618-10.7454-3.8378-4.5265-2.8161-9.3282-3.8688-14.5876-2.8205-2.7719.5552-5.3839 1.4924-7.6404 3.247-.0937.2973-.1532.6042-.1777.915.0487.3598.1275.7149.2355 1.0616 1.1816.7817 1.99.3597 2.874-.1289 4.8196-2.6651 9.808-2.9893 14.8942-.8483 1.5591.6574 3.0427 1.4968 4.5353 2.2964 4.0334 2.1587 8.3111 3.4957 12.9041 3.4424 7.2539-.0844 13.2151-3.247 18.3457-8.1597 1.4215-1.3592 1.0483-2.3719-1.1283-3.1225z" fill="#282749"/><path d="m51.3986 40.5054c4.3221.2843 6.9562-3.5538 6.9163-6.5345-.0622-4.7976-3.7047-6.9077-6.7697-6.9699-.9026-.0154-1.7992.1498-2.6371.4859-.8379.336-1.6002.8362-2.2421 1.471-.6418.6349-1.1503 1.3916-1.4956 2.2258-.3452.8341-.5202 1.7289-.5148 2.6317.0223 4.1446 3.567 6.961 6.743 6.69z" fill="#111042"/></svg>