<svg fill="none" height="100" viewBox="0 0 100 100" width="100" xmlns="http://www.w3.org/2000/svg"><path d="m53.5965 31.7471c2.4342-1.6569 2.8874-5.1217 1.0972-7.5515-1.5991-2.1323-4.6374-3.0873-7.5825-1.1328-2.332 1.5414-2.9183 5.415-1.1016 7.6005 2.0345 2.4476 4.8817 2.9317 7.5869 1.0838z" fill="#282749"/><path d="m76.5265 31.7471c2.7052 1.8479 5.5526 1.3638 7.5871-1.0794 1.8168-2.1855 1.2304-6.0591-1.1017-7.6005-2.9451-1.9545-5.9835-.9995-7.5826 1.1328-1.7902 2.4165-1.3371 5.8902 1.0972 7.5471z" fill="#282749"/><g fill="#111042"><path d="m84.5845 36.3891c-.1308-.1935-.2985-.3594-.4935-.4881-.1949-.1286-.4134-.2176-.6428-.2617-.2294-.0442-.4653-.0426-.6941.0045s-.446.1389-.6393.27c-.2198.1504-.403.3481-.536.5788s-.2124.4883-.2325.7538c-.3554 3.758-3.2517 6.5653-5.6282 8.4398l-1.4347-6.0011c-.068-.2779-.202-.5353-.3907-.7503s-.4265-.3812-.6932-.4846l-9.1596-3.5536c-.3017-.1149-.629-.1454-.9467-.0883-.3178.0571-.6139.1998-.8567.4126-.2416.2144-.4201.4907-.5164.7991s-.1066.6372-.0299.951l4.1354 16.693c.0647.2591.187.5003.3577.7056.1707.2054.3855.3696.6285.4804l9.1596 4.1355c.2287.1041.4772.1571.7284.1555.4101-.0011.8071-.1438 1.1239-.4042.2549-.2113.4457-.4897.5509-.8036s.1205-.651.0444-.9732l-.5998-2.5053c1.3723-.4789 2.6878-1.1076 3.9224-1.8746-1.3104 5.859-2.8918 13.1351-1.9412 22.5921.0442.4398.2508.8473.5793 1.1429.3286.2957.7555.4584 1.1975.4562h.1822c.2322-.0234.4575-.0922.6631-.2026.2055-.1104.3873-.2602.5349-.4409.1477-.1807.2584-.3886.3257-.6121.0673-.2234.0899-.4579.0666-.69-.8884-9.0173.6618-16.0489 1.9233-21.6991 1.4615-6.592 2.6297-11.8113-.6885-16.7375zm-15.5473 15.5914-3.1094-12.5575 5.1217 1.9811 3.0829 12.8818zm7.9381-.9817-.3732-1.568c1.8479-1.3326 4.6287-3.5047 6.4543-6.5431.1831 1.1805.056 2.3882-.3687 3.5048-1.035 2.6163-3.8556 3.9223-5.6991 4.6241z"/><path d="m24.1995 31.7471c2.4342-1.6569 2.8873-5.1217 1.0971-7.5515-1.5991-2.1323-4.6374-3.0873-7.5825-1.1328-2.3321 1.5414-2.9185 5.415-1.1017 7.6005 2.0522 2.4476 4.8819 2.9317 7.5871 1.0838z"/><path d="m36.6815 34.914-9.1552 3.5536c-.2667.1034-.5045.2696-.6932.4846s-.3227.4723-.3907.7502l-1.4347 6.0012c-2.3766-1.8657-5.2728-4.673-5.6281-8.4398-.0201-.2655-.0996-.5231-.2327-.7538-.133-.2307-.3162-.4285-.5359-.5788-.1933-.1312-.4105-.223-.6393-.2701s-.4647-.0486-.6941-.0044c-.2294.0441-.4479.1331-.6429.2617-.195.1287-.3626.2945-.4934.4881-3.3183 4.8862-2.1545 10.1277-.6753 16.733 1.2616 5.6502 2.8296 12.682 1.9234 21.6992-.0233.2322-.0007.4667.0666.6901s.178.4314.3257.6121c.1476.1806.3294.3304.5349.4409.2056.1104.4309.1791.6631.2025h.1822c.442.0022.8689-.1604 1.1975-.4561s.5351-.7032.5793-1.143c.9506-9.4571-.6308-16.7331-1.9412-22.5921 1.2342.7678 2.5497 1.3965 3.9224 1.8745l-.5997 2.5053c-.0762.3223-.0608.6594.0443.9733.1052.314.296.5923.551.8035.3167.2604.7138.4033 1.1238.4043.2513.0016.4998-.0514.7285-.1555l9.1596-4.1355c.243-.1109.4578-.2751.6285-.4804.1707-.2054.293-.4465.3577-.7056l4.1355-16.6931c.0766-.3138.0663-.6426-.03-.951-.0962-.3083-.2748-.5846-.5164-.7991-.245-.2153-.5445-.3591-.8658-.4155-.3212-.0564-.6517-.0233-.9554.0957zm-18.6568 11.4959c-.4247-1.1165-.5518-2.3243-.3687-3.5048 1.8257 3.0384 4.6064 5.1927 6.4543 6.5431l-.3731 1.5681c-1.8435-.7019-4.6642-2.0078-5.7125-4.6064zm13.6506 5.588-5.0907 2.3009 3.0828-12.8818 5.1218-1.9811z"/><path d="m56.3774 35.0919h-11.5049c-.4712 0-.9231.1872-1.2564.5204-.3332.3332-.5204.7851-.5204 1.2564v16.5421c0 .4713.1872.9233.5204 1.2565.3333.3332.7852.5204 1.2564.5204h3.9979v20.3357c0 .4712.1872.9232.5204 1.2564s.7851.5204 1.2564.5204c.4712 0 .9231-.1872 1.2563-.5204.3333-.3332.5205-.7852.5205-1.2564v-20.3357h3.9978c.4713 0 .9232-.1872 1.2564-.5204s.5204-.7852.5204-1.2565v-16.5421c.0001-.2371-.0473-.4719-.1393-.6904-.0921-.2185-.227-.4164-.3967-.582s-.3709-.2955-.5916-.3821-.4566-.1283-.6936-.1223zm-1.7769 16.5466h-7.9956v-13.0285h7.9956z"/></g></svg>