<svg fill="none" height="100" viewBox="0 0 100 100" width="100" xmlns="http://www.w3.org/2000/svg"><path d="m66.3469 74.683c-1.3594-.7438-2.6629-1.5855-3.9001-2.5186-2.3099-1.8523-2.732-3.8112-1.466-6.4631.5786-1.1131 1.2193-2.1927 1.9191-3.2338.8217-1.3326 1.6524-2.6296 2.5319-3.9045 1.1728-1.7102 1.3327-3.6203.9641-5.5348-.733-3.7934-1.8657-7.4758-4.3267-10.5585-.8218-1.0312-1.7971-1.9301-2.8918-2.6652-2.3143-1.5414-4.8864-1.3326-6.9342.5019-1.0972.9817-2.03 2.1454-3.0295 3.2337-.7996.8884-1.5281 1.8079-2.3898 2.6119-.6543.6613-1.4526 1.1622-2.3327 1.4635s-1.8179.3949-2.7402.2734c-1.9501-.2932-3.8513-.9417-5.7747-1.4836-.8885-.2532-1.7769-.6175-2.7719-.9773l2.6208-4.7841c2.1722-.9639 4.0556-1.6435 5.7747-2.603 3.0651-1.7101 5.7437-3.9001 7.525-7.0183 1.8701-3.2916 1.0616-6.7163-2.2433-8.5464-1.3693-.7206-2.8577-1.187-4.3932-1.377-3.6381-.5108-6.1124.955-7.6494 4.3087-.3269.743-.5986 1.5091-.8129 2.2921-.7154 2.492-1.0023 5.0876-.8484 7.6757.1177 2.145-.435 4.2734-1.5814 6.0901-1.4393 2.4075-2.7274 4.9084-4.0734 7.3692-.3954.7196-.8307 1.4525-.2177 2.261.613.8084 1.3726.733 2.3765.3154l2.2211-3.7535c3.1361 2.6341 6.5966 3.5536 10.4124 3.6336 1.3321.0424 2.6581-.1954 3.8925-.6982 1.2343-.5027 2.3492-1.2591 3.2725-2.2203.6797-.6751 1.2883-1.4214 1.9324-2.1321.8884-.9906 1.7369-2.0167 2.6653-2.9539 1.2438-1.2305 2.3587-1.3327 3.7269-.2533.6256.5112 1.1746 1.1096 1.6302 1.7768 2.1544 3.0073 3.1983 6.4321 3.7713 10.1367-.3775.1555-.7017.3154-1.0393.4442-1.6792.5553-3.4116.9861-5.0419 1.6613-6.8409 2.8207-11.3762 7.8046-13.5084 14.8896-.4555 1.7117-.7735 3.457-.9507 5.2194-.039.2208-.0323.4473.0197.6654.0521.2181.1483.4233.2828.6027.1345.1795.3044.3294.4992.4406.1947.1112.4102.1812.6331.2057.7774.1066 1.4482-.4441 1.6969-1.4125.0794-.4405.1314-.8856.1555-1.3326.7285-5.97 3.4071-10.803 8.4401-14.1833 1.9386-1.2963 4.1065-2.2114 6.3877-2.6963-1.0395 1.8523-1.9856 3.3493-2.7497 4.9351-1.7768 3.6469-1.1549 6.8584 1.7014 9.7102 2.221 2.1899 4.9307 3.4958 7.7381 4.6507 1.9012.7818 2.6298.0534 2.2522-2.3142-1.0261-.5553-2.2522-1.0928-3.3761-1.7502zm-28.7982-47.0407c.2933-.8266.7277-1.5961 1.2838-2.2744.5036-.5342 1.1493-.9133 1.8612-1.0927 2.11-.5242 5.1973 1.2393 6.1124 3.4826-1.6969 4.6241-5.7215 6.6851-10.1236 8.9639-.1066-3.4692-.2088-6.3387.8662-9.0794z" fill="#282749"/><path d="m56.3871 37.0551c3.4425.0356 6.3386-2.6653 6.423-6.0014.003-1.6772-.6492-3.2891-1.8175-4.4924-1.1683-1.2032-2.7604-1.9025-4.4368-1.9489-.8125-.0053-1.618.1507-2.3698.4591-.7517.3084-1.4347.763-2.0095 1.3374-.5747.5743-1.0297 1.2571-1.3386 2.0087s-.4655 1.5569-.4608 2.3695c-.0222 3.5938 2.5053 6.2325 6.01 6.268z" fill="#282749"/><path d="m69.4203 36.9926c-.367-.0137-.733.0468-1.0761.178s-.6561.3303-.9204.5854c-.2642.2551-.4742.5609-.6174.8992-.1431.3382-.2164.7019-.2156 1.0692 0 1.599 1.1771 2.6961 2.8384 2.665.3658.0064.7291-.0621 1.0675-.201.3384-.139.6449-.3456.9006-.6071.2558-.2616.4555-.5727.5869-.9141.1313-.3414.1915-.7061.1769-1.0717-.0416-.7005-.3479-1.3589-.8567-1.8422-.5088-.4832-1.1823-.7551-1.8841-.7607z" fill="#111042"/></svg>