<svg fill="none" height="100" viewBox="0 0 100 100" width="100" xmlns="http://www.w3.org/2000/svg"><path d="m54.9252 47.9131c-.5558-3.3201-1.4289-6.5791-2.6073-9.7324 6.0233-13.6504 10.7939-15.8137 10.8383-15.8315h-.0488l-1.1905-3.3492c-.6263.2265-6.3298 2.6385-13.1482 18.3989-3.2337 7.4804-6.9073 12.8508-10.9406 15.9913-1.0527.613-1.9988 1.186-2.8472 1.7191-2.9432 1.344-6.1016 2.1547-9.3282 2.3942-5.006.4176-6.2187 3.0695-6.5207 4.1889-.2245.912-.1615 1.8711.1804 2.7459.342.8747.9462 1.6223 1.7296 2.1403.8249.5482 1.7947.8374 2.7851.8307 1.3848-.0323 2.722-.5123 3.8112-1.3682.7523-.5692 1.4155-1.2474 1.9677-2.0122.8884-1.155 2.0922-2.6653 7.1428-5.8413.2576-.1244.4975-.2488.7285-.3687.1804-.0439.3527-.1159.5108-.2132l.0844-.0489c.342-.2132.684-.4442 1.0216-.6796.3833-.2426.7525-.5066 1.1061-.7907.0876-.0735.168-.1553.2399-.2443 3.5535-2.9184 6.8139-7.2805 9.7189-13.0241 2.7185 9.1329 2.4032 17.213-.9505 24.0581-2.8562 5.8235-6.9873 8.5687-7.0584 8.6176-.396.2542-.6749.6551-.7757 1.1148-.1007.4597-.0151.9406.2383 1.3372.1613.2515.3836.4582.646.6011.2624.1428.5566.2172.8554.2162.3385-.0004.6698-.0975.955-.2798.1999-.1244 4.8862-3.1939 8.231-9.8436 2.8251-5.6547 3.5091-11.5937 3.0827-17.1374 1.8789.2977 5.5436 1.2882 7.3071 4.522 2.4475 4.5042.5418 12.1268-5.5126 22.0414-.1217.1992-.2029.4204-.2391.651s-.0265.4661.0283.693c.0549.2269.154.4407.2915.6293.1376.1886.3109.3482.5102.4698.278.1705.5977.2612.9239.2621.3052.0003.6052-.0781.8713-.2274.266-.1494.4892-.3648.6478-.6255 6.8451-11.2205 8.7284-19.8292 5.5968-25.5905-2.8828-5.215-8.9017-6.2233-10.8828-6.4144zm-28.1397 13.9792c-.3579.5067-.7909.956-1.2838 1.3326-.9595.7107-1.87.8884-2.4919.4442-.174-.1101-.3099-.271-.3893-.4609-.0795-.1899-.0986-.3996-.0549-.6008.1555-.5996 1.1326-1.3637 3.3803-1.5502.573-.0489 1.1282-.1066 1.6702-.1777-.3376.3776-.5908.7063-.8484 1.0128z" fill="#282749"/><path d="m42.4611 36.9545c3.0605.1244 6.0364-2.8916 5.9076-5.9566-.1288-3.0649-2.2209-5.9433-5.8854-5.8945-.7759-.0243-1.5487.1068-2.2731.3855-.7245.2787-1.3858.6993-1.9453 1.2373s-1.0058 1.1825-1.3127 1.8954c-.3069.713-.4681 1.4802-.4742 2.2564-.08 2.905 2.0876 5.9211 5.9831 6.0765z" fill="#282749"/><path d="m77.505 35.276c-.3666-.0144-.7323.0456-1.0751.1764-.3428.1307-.6556.3294-.9195.5843-.2639.2548-.4736.5604-.6163.8984-.1426.3381-.2154.7015-.2139 1.0684 0 1.6036 1.177 2.6963 2.8381 2.6652.3658.0051.7288-.0643 1.0669-.204s.6443-.3468.8998-.6086c.2556-.2618.4552-.5729.5867-.9143s.192-.706.1781-1.0716c-.0428-.7001-.3503-1.3576-.86-1.8394-.5097-.4817-1.1835-.7516-1.8848-.7548z" fill="#111042"/></svg>