<svg fill="none" height="100" viewBox="0 0 100 100" width="100" xmlns="http://www.w3.org/2000/svg"><g fill="#282749"><path d="m50.4805 29.5565c1.4404-.7497 2.5242-2.0407 3.0132-3.5891.4889-1.5484.343-3.2277-.4056-4.6686-.3708-.7136-.8787-1.3471-1.4945-1.8644-.6157-.5173-1.3272-.9082-2.0941-1.1503-.7669-.2422-1.5741-.3308-2.3752-.2609-.8012.0699-1.5806.2969-2.2939.6682-1.4404.7497-2.5242 2.0407-3.0131 3.5891-.489 1.5484-.3431 3.2276.4055 4.6685.7498 1.4404 2.0408 2.5241 3.5893 3.0131 1.5484.4889 3.2275.343 4.6684-.4056z"/><path d="m85.0575 18.6411c-1.0528-.4442-4.7618-1.5059-8.3732 2.5675-.8586.9885-1.5625 2.1012-2.0878 3.3005-.8885 1.7769-2.0033 4.1001-6.9162 9.0931l-1.1016.0577c-15.1429.804-23.6495 1.0483-25.2797.7196h-.151c-.0577-.0043-.1156-.0043-.1733 0h-.0267c-.0533 0-.0977 0-.1466 0h-.1642-.0312c-.0515.0107-.1019.0256-.151.0444-.05.0107-.0991.0256-.1466.0445h-.0356c-.0444 0-.0844.0444-.1288.0666l-.1421.0755h-.031c-.0444.0311-.0801.0666-.1156.0933-.0449.0331-.0879.0687-.1288.1066-.0073-.0019-.0149-.0019-.0222 0-.0423.0453-.0823.0928-.1199.1421-.0267.0311-.0578.0578-.08.0889l-.3243.4442c-.4087.5642-.8662 1.1994-1.3326 1.8879-1.9678 2.7053-4.331 5.6726-6.6364 8.5688-3.4026 4.2689-6.9206 8.6844-9.2838 12.3802-.0311.0489-.0488.1022-.0755.1511-3.1993 1.1864-6.2518 2.7365-9.0973 4.6198-.3821.2688-.643.6773-.7261 1.1371-.0832.4597.0181.9337.2819 1.3193.2688.3822.6772.6431 1.137.7262s.9338-.0182 1.3194-.282c.0888-.0622 9.1594-6.2189 17.1506-5.828 1.392.0779 2.773.2936 4.1224.6441l-.1245.1155-1.7189 1.457c-3.709 2.609-7.8228 4.5886-12.1757 5.8592-6.552 1.9767-7.4227 5.7303-7.4938 7.2539-.0394 1.211.2975 2.4045.9641 3.4163s1.63 1.7923 2.7583 2.2341c.7671.2993 1.5843.45 2.4077.4442 1.6391 0 3.82-.6041 5.9655-3.0251.8583-.9895 1.5635-2.102 2.0922-3.3005.6752-1.3859 1.5014-3.0739 4.1-6.0679 1.4422.0877 2.8723.3183 4.269.6885 2.8207.6708 5.2459 1.8435 7.8178 3.1095 4.4154 2.1367 8.973 4.34 15.9514 4.34h.2887c9.8969-.0844 17.8926-5.5038 19.394-6.5921.3769-.2764.6296-.6901.7036-1.1516.074-.4614-.0366-.9335-.3082-1.3138-.2757-.3776-.6891-.6313-1.1506-.7061-.4615-.0749-.934.0352-1.3148.3063-.8307.5997-8.3466 5.8458-17.355 5.9214-6.3077.071-10.3722-1.9057-14.6587-3.9979-2.6297-1.2705-5.3305-2.5854-8.5421-3.3494-.7684-.1821-1.4703-.3198-2.1188-.4442.4886-.4931 1.0083-1.0084 1.5725-1.5548.9493-.7319 1.857-1.5164 2.7186-2.3499.6485.2444 1.297.4976 1.9544.7552 3.9978 1.5814 8.5553 3.3716 14.7919 3.456h.6663c11.0474 0 17.7237-3.7669 21.3973-6.9653.351-.309.566-.7439.5984-1.2104s-.1203-.927-.4251-1.2816c-.309-.351-.744-.566-1.2105-.5985-.4665-.0324-.9269.1204-1.2815.4253-6.2632 5.446-15.0275 6.1523-19.6961 6.0901-5.5925-.0755-9.6347-1.6702-13.5437-3.2072l-.2266-.0888 20.6555-17.5109c.2008-.0816.387-.1956.5509-.3376.6574-.5996 1.2793-1.1682 1.8701-1.7191l3.6646-3.1094c3.5215-2.3475 7.3801-4.145 11.4428-5.3306 6.5521-1.9767 7.4226-5.7303 7.4937-7.2539.0239-1.199-.3206-2.3764-.9871-3.3734-.6665-.9969-1.6228-1.7653-2.7398-2.2015zm-40.4225 19.4254c3.7003 0 9.8169-.2266 18.9008-.6885-.533.5064-.946.9328-1.2437 1.2571l-10.2568 8.6976-.9283.2266c-2.9362.7285-8.0623 1.306-10.1679-.0933-1.1949-.7907-1.8611-1.6569-2.0388-2.6653-.2976-1.648.7551-3.6647 1.9011-5.3972.3494-.4856.6872-.9609 1.0129-1.4259.7063.0667 1.6346.0889 2.8162.0889zm-17.4794 18.9944c2.0256-2.7985 4.4641-5.8591 6.845-8.8531l1.5903-1.9945c.4975 1.6347 1.6304 3.0518 3.3805 4.2111 1.6703 1.1106 3.9668 1.4526 6.1833 1.4526.5375 0 1.0661 0 1.5814-.0533l-6.9784 5.9169c-.2451.0635-.4739.1786-.6709.3376-2.2532-.7729-4.6006-1.2376-6.9784-1.3815-1.6609-.0679-3.3242.0543-4.9574.3642zm-1.6259 16.7157c-.391.9087-.9165 1.7533-1.559 2.5054-1.4126 1.5903-3.0073 2.1855-4.3755 1.6347-.4471-.1656-.8321-.4653-1.1025-.8581-.2703-.3928-.4127-.8595-.4077-1.3363.071-1.5992 1.9322-3.1095 4.9706-3.9979 1.6569-.4975 3.1938-1.0528 4.6108-1.6347-.8191 1.1647-1.5354 2.3983-2.141 3.6869zm54.7349-45.6383c-1.5635.4687-3.1025 1.0158-4.611 1.6392.8187-1.1719 1.5336-2.4131 2.1367-3.7092.391-.9073.9167-1.7504 1.5592-2.5009 1.0661-1.2038 2.2209-1.839 3.3359-1.839.3565-.0009.7098.0685 1.0395.2043.4467.1648.8317.4637 1.102.8557.2704.3921.413.8581.4083 1.3342-.0755 1.5992-1.9368 3.1007-4.9751 4.0157z"/></g></svg>