<svg fill="none" height="100" viewBox="0 0 100 100" width="100" xmlns="http://www.w3.org/2000/svg"><g fill="#282749"><path d="m76.4283 65.7775c-.2766-.103-.5621-.1803-.8528-.231-3.8216-.999-7.2372-3.1633-9.7725-6.1922-3.2605-3.8379-6.0279-8.0401-7.5826-12.9129-.9317-2.9044-2.7316-5.4533-5.1571-7.3028-2.7568-2.1158-5.8063-3.82-9.0529-5.0594-.5375-.2132-1.066-.4442-1.7057-.7329.8416-1.5944 1.9711-3.0192 3.3315-4.2022.5264-.4699 1.1414-.8298 1.8088-1.0587.6675-.2288 1.374-.322 2.078-.2739h.3509l-.1022.0978c-1.0983 1.1173-2.0248 2.3911-2.7496 3.7801.7248 1.3889 1.6513 2.6628 2.7496 3.7801 1.4629 1.4919 3.2089 2.6769 5.1356 3.4854 1.9268.8085 3.9955 1.2244 6.0849 1.2232 2.0895.0012 4.1583-.4147 6.0851-1.2232 1.9267-.8085 3.6726-1.9935 5.1355-3.4854 1.0983-1.1173 2.0249-2.3912 2.7497-3.7801-.7248-1.389-1.6514-2.6628-2.7497-3.7801-1.4629-1.4919-3.2088-2.6769-5.1355-3.4854-1.9268-.8085-3.9956-1.2244-6.0851-1.2232-2.2553-.0006-4.4841.4858-6.5342 1.4259-.7018-.1643-1.5901-.2399-3.247-.5064-3.487-.5552-6.4588.2132-8.8442 2.8385-1.1864 1.2139-2.2475 2.5443-3.1671 3.9711-1.8745 3.1761-3.5536 6.4765-5.3304 9.7103-.7374 1.3326-1.5325 2.6652-2.221 3.869-1.0528 1.6835-.4442 3.9978 2.3187 4.6818 2.643.6397 2.8474.7463 5.2416 1.0483 2.2477.2977 4.9306.7285 5.9167.4442.9862-.2842 1.1684-1.0349.7508-1.8745-.8884-1.7768-2.9984-1.3326-5.4682-1.9456-2.4742-.5241-5.8723-.6441-4.1932-2.6208 1.0883-2.181 1.9855-3.6025 3.136-5.7746.2709-.5064.6041-.9728.9905-1.5858 1.1328.3954 2.1856.7108 3.1939 1.1283 3.225 1.3326 6.2899 2.9451 8.6886 5.5881 1.0908 1.1118 1.8929 2.4736 2.3365 3.9667.4442 1.7235.0978 2.8606-1.3859 3.8334-1.0391.7002-2.1612 1.2687-3.3404 1.6924-2.3676.8174-4.8196 1.3993-7.1916 2.2211-1.9552.6511-3.8638 1.4347-5.7125 2.3454-.7854.3579-1.4296.9666-1.8316 1.7303-.402.7638-.539 1.6395-.3894 2.4896.1478 1.3135.4352 2.6075.8573 3.8601 1.5591 4.2199 4.2289 7.7691 7.0762 11.185 1.3326 1.5725 2.4076 1.3326 3.5269-.6708-.1599-1.4836-1.3948-2.3543-2.221-3.4559-1.9323-2.6252-3.829-5.2638-5.0239-8.3199-.4442-1.0794-.9728-2.181-.3731-3.6513 1.1476-.5307 2.3235-.9978 3.5225-1.3992 5.1572-1.4837 10.5009-2.4609 14.9385-5.979.3198.502.5641.8573.7729 1.2304 1.9389 3.3241 4.3712 6.3347 7.2139 8.9285 1.9783 1.907 4.3054 3.4151 6.8541 4.442 1.2373.4767 2.5226.8177 3.8334 1.0172.2194.0453.4458.0446.6649-.002.2191-.0467.4261-.1381.6081-.2688.1819-.1306.3349-.2975.4492-.4902.1142-.1927.1873-.407.2146-.6293.1022-.924-.3866-1.5192-1.195-1.8967zm-6.2188-34.0614c-1.0963 1.3996-2.4966 2.5313-4.0952 3.3094-1.5984.7781-3.353 1.1821-5.1308 1.1814-1.7779.0007-3.5325-.4033-5.131-1.1814s-2.9989-1.9098-4.0951-3.3094c1.0962-1.3997 2.4966-2.5314 4.0951-3.3095s3.3531-1.1821 5.131-1.1814c1.7778-.0007 3.5324.4033 5.1308 1.1814 1.5986.7781 2.9989 1.9098 4.0952 3.3095z"/><path d="m35.9483 29.7881c-.0523-1.8323-.8224-3.5706-2.1445-4.8403-1.322-1.2697-3.0899-1.969-4.9228-1.9473-.9079-.0036-1.8076.1733-2.6466.5203-.8391.3471-1.6007.8574-2.2409 1.5013s-1.1461 1.4086-1.4882 2.2496c-.3422.8411-.5138 1.7417-.505 2.6496.1022 4.7309 3.9978 7.0453 6.9429 6.8365.9272.0386 1.8524-.115 2.7174-.4511s1.6511-.8476 2.309-1.5021c.6578-.6546 1.1733-1.4381 1.5138-2.3014s.4988-1.7877.4649-2.7151z"/></g></svg>