<svg width="101" height="100" viewBox="0 0 101 100" fill="none" xmlns="http://www.w3.org/2000/svg">
<path d="M35.6937 34.5908C39.5688 34.5908 42.6688 31.3939 42.5719 27.6157C42.5719 23.1594 39.375 19.8656 35.1125 19.9625C31.0437 19.9625 27.9436 23.2563 27.9436 27.3251C27.9436 31.3939 31.4312 34.5908 35.5968 34.4939H35.6937V34.5908ZM79.385 72.6633C79.385 71.5007 78.2225 70.6288 77.0599 70.8226L70.8599 71.5007C58.8472 65.2038 47.222 47.1848 46.447 37.4002V37.0127C47.0283 36.044 47.5126 35.0752 48.0939 34.0096C49.7408 30.8126 51.6783 29.0689 53.519 28.972C55.069 28.972 56.4253 30.1345 57.1034 31.297C57.8784 32.6533 58.0722 34.1064 57.4909 35.0752C56.9097 36.044 57.2972 37.4002 58.2659 37.8846C59.2347 38.4659 60.591 38.0784 61.0753 37.1096C62.3347 34.8815 62.2379 31.7814 60.591 29.1657C58.9441 26.3563 56.1346 24.7094 53.2284 24.8063C50.8064 24.8063 47.3189 26.1626 44.2188 32.072C33.6593 52.8036 23.2935 54.3536 23.0998 54.3536C21.9373 54.3536 21.1623 55.5161 21.2591 56.5818C21.356 57.6474 22.2279 58.5193 23.2935 58.5193C24.3592 58.5193 23.3904 58.5193 23.4873 58.5193C23.9717 58.5193 33.0781 57.4537 43.0563 42.3409C44.122 46.216 46.1564 50.5754 48.772 54.7411C47.7064 55.1286 45.672 55.9036 43.6376 57.163C39.2781 59.6818 36.8562 62.5881 36.3719 65.785C35.8875 68.7882 37.1469 71.6945 39.9563 74.6008L31.2374 75.4727C30.0749 75.4727 29.2999 76.6352 29.3968 77.7977C29.4936 78.8633 30.4624 79.6384 31.4312 79.6384C32.3999 79.6384 31.528 79.6384 31.6249 79.6384L77.3506 74.9883C78.5131 74.9883 79.2881 73.8258 79.1912 72.6633H79.385ZM45.672 73.8258C43.0563 71.8882 40.15 69.0788 40.5375 66.3663C41.2157 62.3944 48.3845 59.1974 50.9033 58.4224C50.9033 58.4224 51.0971 58.4224 51.1939 58.4224C54.9721 63.7506 59.5253 68.6913 64.2723 72.1789L45.7689 74.0195H45.672V73.8258Z" fill="#282749"/>
</svg>
