<svg fill="none" height="100" viewBox="0 0 100 100" width="100" xmlns="http://www.w3.org/2000/svg"><path d="m58.0107 59.3987c-.7729-.1955-1.5414-.4087-2.221-.5909-.8173-3.4159-1.5992-6.6986-2.3943-10.0168 2.0033-3.4115 3.9712-6.8852 6.059-10.279 1.2705-2.07 2.6296-4.1133 4.7974-5.4282.3534-.304.6616-.657.9151-1.0483-.8885-1.9945-1.5414-2.2655-3.0295-1.3015-.7602.4556-1.4463 1.0249-2.0345 1.688-1.2783 1.5244-2.4649 3.1233-3.5536 4.7885-2.4032 3.8068-4.6465 7.7203-7.0585 11.5228-1.2149 2.0472-2.9398 3.7444-5.0062 4.9262-3.8558 2.0789-6.4632.9773-7.3783-3.2694-.8173-3.8068-.5819-7.6359-.1066-11.4561.1866-1.4703.9195-9.7725 1.6213-12.4378 1.2571-.5064 2.421-.8128 3.4116-1.4036 3.9979-2.3988 5.7392-8.0713 3.9668-12.7089-1.7724-4.63748-6.8409-5.82347-10.6122-2.45638-3.8779 3.46038-5.0062 11.72258-.2754 15.17848.2011.2029.3784.4279.5286.6708-1.2438 4.8063-2.181 18.6034-2.1899 19.7806-.0222 2.9006.2088 5.7747 1.5859 8.3866 1.3059 2.5098 3.2871 3.869 6.2189 3.8202 2.7407-.0489 4.9973-1.1505 6.9918-2.9096.8617-.7596 1.6658-1.5947 2.6652-2.5541.2513.5954.4722 1.2033.6619 1.8212 2.03 8.3822 1.5591 16.5423-2.1767 24.4314-1.3227 2.8099-2.991 5.4437-4.9662 7.8403-.4975.5996-.7818 1.2881-.3643 2.0433.4176.7551 1.1461.8173 2.1189.5064 3.1657-3.647 5.6282-7.8491 7.2628-12.3934 1.6679-4.5694 2.4912-9.404 2.4298-14.2679 6.3433 1.1416 10.2168 6.8052 9.0974 12.9663-.8129 4.5088-2.7097 8.5599-5.1262 12.4068-.4515.675-.8538 1.3816-1.2038 2.1144-.1493.3058-.1729.6578-.0658.9808s.3364.5912.6389.7472c.2736.2006.6134.2893.9502.2481.3368-.0413.645-.2094.8621-.4702.2009-.2148.381-.4484.5375-.6975 3.0651-4.673 5.4549-9.6303 6.4144-15.1963 1.1727-6.8807-3.2338-14.2812-9.9725-15.9825zm-22.4014-38.4284c-.3194-.8243-.5617-1.6763-.724-2.5453.2443-2.6963.8884-4.7708 2.6652-6.3167 2.1456-1.8567 4.602-1.2437 5.6859 1.3949 1.3326 3.296-.3331 7.1472-2.221 8.6575-2.0611 1.6792-4.2823 1.2439-5.4061-1.1904z" fill="#282749"/><path d="m40.2516 39.8981c-.0799 2.9228 2.0878 5.9387 5.9835 6.0942 3.0605.1244 6.0367-2.8916 5.9079-5.9565s-2.1988-5.9476-5.8857-5.8943c-.7744-.0242-1.5459.1062-2.2692.3838s-1.3839.6967-1.9432 1.2328c-.5592.5361-1.006 1.1784-1.3139 1.8893s-.4709 1.4761-.4794 2.2507z" fill="#282749"/><path d="m61.6444 22.6901c.3667.0096.7314-.0566 1.0713-.1945.34-.1378.6477-.3444.9042-.6067.2564-.2623.4559-.5747.586-.9176.1302-.343.1882-.7092.1703-1.0756-.0395-.7022-.3447-1.3629-.8538-1.8481s-1.1837-.7584-1.8869-.7641c-.367-.015-.7332.0446-1.0766.175-.3433.1305-.6567.3292-.9212.5841-.2644.2549-.4744.5608-.6174.8991-.1429.3384-.2159.7022-.2144 1.0695-.0073.3676.0624.7326.2046 1.0716s.3538.6445.6212.8968c.2673.2523.5845.4459.9311.5683.3467.1223.7151.1708 1.0816.1422z" fill="#111042"/></svg>