<svg fill="none" height="100" viewBox="0 0 100 100" width="100" xmlns="http://www.w3.org/2000/svg"><g fill="#282749"><path d="m77.5251 37.1081c-1.6448-1.4094-3.7512-2.1637-5.9168-2.1189-3.7712-.0488-7.5514-.0355-11.3138-.0266-7.1072 0-14.2144.0666-21.2949.0755-.418-.0579-.826-.173-1.2127-.342.1962-.194.4295-.3463.6859-.4478.2565-.1015.5308-.1501.8066-.143 2.292 0 4.5841.0118 6.8762.0355.8884 0 1.6391-.1555 2.0256-1.0305.3509-.7952 0-1.4215-.7329-2.1056-2.8118-.3109-5.8235.1022-8.9152-.2088.1155-.6396.151-1.0749.2709-1.4836 1.0704-3.8472 2.5898-7.5552 4.5265-11.0474.5242-.9195 1.0527-1.8168.1465-3.1094l-1.83-.1555c-1.6766 2.4312-3.0309 5.0695-4.0289 7.8491-1.0217 2.6652-1.8745 5.3926-2.8473 8.2267h-14.1167c-.8884 1.0394-.8885 1.879.1021 2.9495l13.4238.08c0 2.0389-.0267 3.8023 0 5.5703.0141 4.5434 1.4458 8.9691 4.0955 12.6598.9405 1.2348 1.9884 2.3839 3.1316 3.4338.1366.152.3029.2745.4887.3598.1857.0853.3869.1317.5912.1362.2044.0046.4076-.0327.5969-.1096.1894-.0769.3609-.1918.5042-.3376.2586-.3123.4001-.705.4001-1.1105 0-.4054-.1415-.7982-.4001-1.1105-.2777-.3392-.5744-.6625-.8884-.9684-1.9213-1.9638-3.3639-4.3442-4.2155-6.9562-.7725-2.3787-1.1212-4.8745-1.0304-7.3738.8306-.0578 1.3325-.1378 1.8434-.1155 1.3947.0621 2.7895.231 4.1887.2398 4.3621.0356 8.7241 0 13.0906 0 .6352 0 1.2705.0978 1.9768.1555.0444.7507.1022 1.3326.1066 1.9101.0444 5.6903.0266 11.385.1465 17.0752.0578 2.7097-.2443 5.2861-1.4525 7.747-.8884 1.7768-1.5947 3.6558-2.4476 5.4593-1.6746 3.5536-3.3892 7.0629-5.0905 10.5899-.3198.6663-.7151 1.3325-.2043 2.0744.5108.7418 1.2971.8884 2.3543.4442 3.1494-5.5259 5.668-11.5494 8.6708-17.8615 1.0972 2.6341 2.0122 4.7974 2.8962 6.974 1.3326 3.216 2.5719 6.4499 3.909 9.6526.6929 1.6569 1.1149 1.7768 2.8739 1.0172.6397-1.0439.1155-2.0034-.2665-2.9495-2.3365-5.828-4.6863-11.6515-7.0494-17.4706-.6341-1.4141-.964-2.9456-.9685-4.4954.1022-4.7307.0889-9.466.1378-14.2145 0-.4931.1021-.9906.182-1.6658.7641.0977 1.4082.151 2.039.271 2.8965.6013 5.8596.8194 8.8129.6485 1.1743-.0822 2.3291-.3429 3.4248-.7729 2.8385-1.1505 3.2027-3.8424.8973-5.9035zm-15.2761 1.7768c.1777-.1377.3287-.3509.4798-.3554 3.2248 0 6.4542-.0799 9.6747.04.9639.0311 1.9055.5819 3.0649.9595-2.4253 1.4081-10.2966.9328-13.2194-.6663z"/><path d="m60.3212 32.8669c3.5534.0311 6.1563-2.4919 6.2762-6.0277.03-.8343-.1111-1.6659-.4145-2.4435-.3035-.7777-.763-1.4849-1.3502-2.0783-.5871-.5934-1.2895-1.0603-2.0639-1.3721-.7743-.3117-1.6042-.4616-2.4387-.4404-3.6823.0311-6.0854 2.754-6.1654 6.2188-.0666 2.8384 2.2166 6.2409 6.1565 6.1432z"/></g></svg>