<svg fill="none" height="100" viewBox="0 0 100 100" width="100" xmlns="http://www.w3.org/2000/svg"><path d="m64.5106 60.2945c-.844 1.3903-1.6215 2.8207-2.5454 4.1488-1.373 2.0485-3.4014 3.5694-5.7525 4.3133-2.9896.9328-5.6904.0489-8.1913-1.5814-3.9001-2.5408-6.9342-5.9479-9.706-9.9014.5863-4.5397 3.2783-7.6581 6.3167-10.6254 1.075.5597 1.9589 1.1016 2.9051 1.5014 1.6169.6841 3.225 1.4792 4.9219 1.8879 4.9796 1.1905 9.5327-1.5236 11.0608-6.4365 1.6392-5.2728.1422-9.9903-2.3276-14.4501-1.8924-.3287-2.2744-.2488-2.8341.4442-.6796.8484-.3732 1.6569.0622 2.4743.1377.262.2621.5286.4043.7862 1.497 2.7186 1.6169 5.6681 1.2837 8.6265-.3554 3.1316-2.4165 4.8241-5.5838 4.7486-4.3221-.0977-7.4804-2.4298-10.1412-5.5526-2.1856-2.5586-3.5537-5.5882-4.6465-8.742-1.4517-4.0248-2.3483-8.2287-2.6652-12.4956-.0889-1.3681-.2177-2.8651-1.9102-3.3626-2.0522.8884-2.4298 1.6702-2.0078 4.2511.3953 2.3942.7551 4.7974 1.2793 7.165 1.0572 4.7797 2.6653 9.355 5.375 13.4906.6352.9728 1.3593 1.8879 2.0123 2.7896-.9679 1.0697-1.8813 2.1876-2.7365 3.3493-.7779 1.2384-1.4767 2.5246-2.0922 3.8513-2.5853 5.2238-2.8163 10.661-1.226 16.1824 2.2211 7.7204 6.9697 13.7704 12.9044 18.9765.382.2853.7911.5323 1.2215.7374 1.2527-.2309 1.808-.8884 1.6792-2.2699-3.1095-2.8162-6.1257-5.9301-8.5733-9.5548-2.9762-4.4021-4.8419-9.2662-4.5265-12.0825.6974.7019 1.3326 1.306 1.9101 1.9279 2.5187 2.6386 5.2817 4.9485 8.6844 6.3921 1.8303.8233 3.8438 1.154 5.8413.9595 5.5837-.6486 10.8876-5.5082 12.1936-11.1052-.9107-1.3326-.9106-1.3326-2.5897-.8439z" fill="#282749"/><path d="m44.6576 37.1817c.1466 3.7267 2.5456 6.4052 6.7349 6.3252 3.4119-.0622 6.0685-2.6651 6.1307-6.4984.0003-.8483-.1694-1.6881-.4993-2.4698-.3298-.7816-.8129-1.4892-1.4209-2.0809s-1.3284-1.0556-2.1188-1.3642c-.7903-.3086-1.6345-.4557-2.4827-.4325-.8472.0033-1.6852.1755-2.4651.5066-.7798.3311-1.4857.8144-2.0764 1.4216-.5908.6072-1.0545 1.3261-1.3639 2.1146-.3095.7886-.4586 1.631-.4385 2.4778z" fill="#282749"/><path d="m46.4928 26.2324c4.1446-.2088 6.1169-2.5496 6.6056-6.6006.0222-3.3181-3.2161-6.6318-6.4767-6.6318-1.788.0508-3.4882.786-4.7497 2.054-1.2614 1.268-1.9878 2.9719-2.0292 4.7599.0177 3.3092 3.2917 6.5873 6.65 6.4185zm-2.4743-7.5512c.2602-.6151.7304-1.1178 1.3267-1.4188.5962-.3009 1.28-.3806 1.9295-.2247 1.2971.3687 1.8568 1.5413 1.688 3.7134-1.4748 1.568-2.6654 1.9233-3.8826 1.1904-.5477-.3171-.9586-.8255-1.1538-1.4274-.1952-.602-.1608-1.2548.0966-1.8329z" fill="#111042"/></svg>