<svg fill="none" height="93" viewBox="0 0 296 93" width="296" xmlns="http://www.w3.org/2000/svg"><path d="m195.036 22.9951c7.057 3.1232 17.14-1.6182 23.712 2.8481 13.984 7.2335 29.554 10.5509 46.273 11.0364 9.921 4.2037 20.328 7.1554 30.979 8.787-16.38 3.9323-32.824 8.6738-49.074 13.1401-10.974 2.8319-23.096-.2751-33.649 2.9775-14.065 4.4826-28.761 7.2335-43.328 10.826-11.847 0-26.171 2.6378-36.465 8.3339 2.266-23.8366 6.992-49.9549-.13-73.37075l.13-.48547c19.196 8.80322 39.492 14.96872 61.504 15.90722" fill="#e63027"/><path d="m207.856 31.3938c9.193-2.039 15.36 5.5505 23.582 6.9746 10.488 3.8514 22.335 3.7866 33.519 5.68l2.671 1.0842c-3.642 1.8286-8.708 2.7672-12.819 4.2559-14.259 7.2497-33.649.8901-48.183 7.0394-9.938 4.2721-21.802 4.5472-31.675 9.0135-10.552 1.6183-22.206.4693-31.383 5.2108l-.485-.3399c1.926-16.7811 2.67-34.792-.13-52.1233 19.73 9.4181 42.567 10.4214 64.903 13.2048z" fill="#fff"/><path d="m145.478 43.3687c-.029-3.4082.956-6.7483 2.829-9.5962 1.872-2.8479 4.549-5.0754 7.69-6.3997 3.142-1.3243 6.605-1.6858 9.952-1.0386s6.427 2.2739 8.847 4.6737c2.421 2.3999 4.074 5.4646 4.75 8.8053.676 3.3408.344 6.8069-.954 9.9587-1.298 3.1517-3.503 5.8469-6.335 7.7436-2.833 1.8966-6.165 2.9093-9.574 2.9094-2.252.0171-4.485-.4114-6.57-1.2607-2.086-.8493-3.983-2.1027-5.582-3.688s-2.869-3.4712-3.736-5.5491-1.315-4.3068-1.317-6.5584z" fill="#574d7d"/><path d="m154.183 38.2875c-.546-.1116-1.111-.095-1.65.0484-.538.1435-1.037.4099-1.455.7784-.419.3685-.746.829-.957 1.3453-.211.5164-.299 1.0745-.258 1.6307 0 0 2.055.9386 2.055 1.2784 0 0 1.375-1.0842 1.375-1.3431-.004-1.2991.301-2.5806.89-3.7381z" fill="#e63027"/><path d="m159.736 36.0705c-1.463.1119-2.823.7969-3.784 1.906s-1.445 2.5527-1.347 4.0167c0 0 1.781 2.1685 2.525 2.1685.92-.3745 1.794-.8523 2.606-1.4241z" fill="#e63027"/><path d="m166.389 38.2875c.638 1.1539 1.034 2.4259 1.165 3.7381 0 .2589 1.376 1.3431 1.376 1.3431 0-.3398 2.055-1.2137 2.055-1.2137.008-.5745-.113-1.1435-.352-1.6659-.239-.5225-.591-.9854-1.031-1.3553-.439-.37-.956-.6378-1.511-.7841-.556-.1464-1.137-.1676-1.702-.0622z" fill="#e63027"/><path d="m161.048 36.1352v6.5539c.84.5631 1.735 1.0402 2.67 1.424.745 0 2.331-1.8286 2.331-1.8286.085-.7337.022-1.477-.184-2.1862-.207-.7091-.554-1.3697-1.02-1.9427-.466-.5731-1.042-1.0471-1.694-1.3941s-1.367-.5599-2.103-.6263z" fill="#e63027"/><path d="m151.984 43.0127c.387-.2992.745-.6352 1.068-1.0033.014-.5413.057-1.0815.129-1.6182.093-.6684.29-1.3181.583-1.9257-.479-.0397-.962.0234-1.415.1848-.453.1615-.866.4177-1.212.7516-.346.3338-.617.7376-.795 1.1845-.178.4468-.258.9265-.236 1.4068.566.2459 1.108.5439 1.619.89zm-2.363-.9062c-.046-.6286.063-1.2588.317-1.8354.255-.5766.647-1.082 1.142-1.4718s1.079-.6521 1.699-.7639 1.259-.0697 1.859.1226c-.796 1.1136-1.18 2.4697-1.084 3.8352-.007.1016-.047.1981-.114.2751l-.178.2104c-.356.3884-1.036 1.1166-1.618.8738l-.194-.1618c-.58-.3773-1.192-.7022-1.829-.9709z" fill="#574d7d"/><path d="m154.833 41.8476c.275.3236 1.618 1.9419 2.266 2.0228.838-.3533 1.64-.7868 2.395-1.2946v-6.2626c-1.324.1833-2.533.8503-3.394 1.8723-.86 1.0221-1.312 2.3267-1.267 3.6621zm-.486.1456c-.05-.778.057-1.5583.315-2.2939.259-.7356.663-1.4115 1.189-1.9872s1.163-1.0394 1.872-1.3631c.709-.3238 1.477-.5011 2.256-.5213v6.9746c-.842.6834-1.787 1.2295-2.8 1.6183-.857 0-2.379-1.7801-2.816-2.3141z" fill="#574d7d"/><path d="m168.865 43.0127.243-.178c.513-.328 1.055-.6097 1.618-.8415-.018-.4911-.135-.9736-.343-1.4188s-.504-.8441-.869-1.173c-.365-.329-.793-.5813-1.257-.7421-.465-.1607-.957-.2266-1.447-.1938.54 1.1244.88 2.3348 1.003 3.5763 0 .1133.745.712 1.052.9709zm-1.829-2.4435c-.146-.8872-.526-1.7194-1.1-2.4112.632-.1868 1.299-.2196 1.946-.0956.648.124 1.256.4012 1.774.8084.518.4071.931.9325 1.205 1.532.273.5996.399 1.2559.367 1.9141 0 0-.663.2751-1.165.534-.33.1477-.635.3441-.907.5826l-.404.1941s-.356-.2751-.712-.5825c-.356-.3075-.745-.615-.745-.9386 0 0-.097-.6797-.275-1.4726" fill="#574d7d"/><path d="m161.29 42.5758c.785.5049 1.614.9381 2.476 1.2946.567-.0809 1.797-1.4079 2.04-1.6992.127-1.3572-.27-2.7117-1.11-3.7858s-2.058-1.7865-3.406-1.9913zm-.502.2427v-6.9422h.259c.773.0701 1.524.2948 2.208.6607.685.3659 1.289.8655 1.776 1.4693.488.6037.849 1.2992 1.063 2.0453.214.746.275 1.5274.181 2.2976-.296.345-.609.6745-.939.9872-.372.3398-1.084.9871-1.618.9871-1.035-.4265-2.018-.9694-2.93-1.6183" fill="#574d7d"/><path d="m170.29 45.0679h-19.811v1.0842h19.811z" fill="#ffdf40"/><path d="m170.29 46.4919h-19.811v.6149h19.811z" fill="#ffdf40"/><path d="m170.225 47.4305h-19.875v.6149h19.875z" fill="#ffdf40"/><path d="m154.185 38.2875c-.546-.1082-1.109-.0891-1.647.0556-.537.1448-1.034.4114-1.452.7791-.418.3678-.746.8268-.958 1.3415s-.302 1.0713-.264 1.6266c0 0 2.055.9386 2.055 1.2784 0 0 1.376-1.0842 1.376-1.3431-.004-1.2991.301-2.5806.89-3.7381zm5.552-2.217c-1.463.1119-2.823.7969-3.784 1.906s-1.445 2.5527-1.347 4.0167c0 0 1.781 2.1685 2.525 2.1685.92-.3745 1.794-.8523 2.606-1.4241zm6.652 2.217c.638 1.1539 1.035 2.4258 1.165 3.7381 0 .2589 1.376 1.3431 1.376 1.3431 0-.3398 2.056-1.2137 2.056-1.2137.007-.5745-.113-1.1435-.352-1.6659-.24-.5225-.592-.9854-1.031-1.3553-.44-.37-.956-.6378-1.512-.7841-.556-.1464-1.137-.1676-1.702-.0622zm-5.341-2.1523v6.5539c.84.5631 1.735 1.0402 2.67 1.424.745 0 2.331-1.8286 2.331-1.8286.083-.7334.019-1.4758-.189-2.1841-.208-.7082-.554-1.3679-1.02-1.9404-.466-.5726-1.041-1.0466-1.692-1.3943s-1.365-.562-2.1-.6305zm-1.101-1.8933v-.615h-.615v-.6796h.615v-.6635h.745v.7444h.631v.6796h-.631v.615c.254.1474.47.3525.631.5987.887.1039 1.744.3853 2.52.8273.775.4421 1.454 1.0358 1.996 1.7457.709-.2238 1.46-.2819 2.195-.1696.735.1122 1.434.3918 2.044.8171s1.114.985 1.474 1.6359c.359.6509.564 1.3756.599 2.1182 0 .2751.469.1295.469.1295-.852.8163-1.607 1.7286-2.249 2.7186h-19.844c-.65-.9898-1.398-1.9115-2.233-2.751 0 0 .405.1457.405-.1294.034-.7427.239-1.4674.599-2.1183.359-.6509.863-1.2106 1.473-1.6359s1.31-.7048 2.045-.8171c.735-.1122 1.486-.0542 2.195.1697 1.08-1.3422 2.62-2.2359 4.321-2.5083.166-.2547.374-.4792.615-.6635" fill="#ffdf40"/><path d="m187.301 39.4526c-3.577-3.9971-10.019-3.0585-14.324.1294v2.6378c3.479-3.8514 10.892-4.0618 12.948-1.149zm-14.324 15.6321v-3.0422c2.524 2.3626 7.056 1.7477 10.957-1.8286l-.761 5.0003s5.552-1.0195 7.543-4.0618c-1.506-2.2331 3.237-9.6123 9.937-6.6347 0 0-.744 1.7638-.744 1.6182-1.441-.4855-7.672.534-6.377 4.5311.955 2.9775 3.706 2.2331 6.652.2751 2.946-1.9581 5.827-4.7415 8.222-5.3564.238-.9973.71-1.9238 1.376-2.7032.666-.7793 1.508-1.3893 2.457-1.7796.948-.3903 1.975-.5498 2.997-.4654 1.022.0845 2.01.4105 2.881.9512l-.55 1.9095c-.68-.4208-6.992-1.2946-6.167 2.6377 1.23 5.68 9.048-2.5083 16.865-1.7639 8.918.8739 12.948 3.2365 20.426 1.6992v1.7477c-7.478 2.6377-16.994-3.2365-25.427-.8739-5.276 1.4888-10.002 6.6995-14.049 1.3593-3.091-1.6182-11.329 11.5704-18.095 5.7448 0 0-7.688 5.0812-10.569 4.8547.211.8738-3.836 4.4663-7.591 5.8904v-2.6054c.56-.1147 1.089-.349 1.55-.687.461-.3379.843-.7715 1.121-1.2711-.898-.0338-1.796.0533-2.671.2589v-1.8933c2.8-.7444 5.681-1.0033 5.957-2.6377-2.027.2037-4.074-.0965-5.957-.8739zm-.017-15.5027c-1.394.8891-2.52 2.1401-3.258 3.6193s-1.061 3.1311-.934 4.7794c-.097 1.4683.252 2.9318.999 4.1991.748 1.2674 1.861 2.2798 3.193 2.9049v-3.0422c-1.112-1.1752-1.752-2.7194-1.796-4.3369-.078-.9878.04-1.9812.349-2.9229.308-.9416.8-1.8127 1.447-2.5629zm0 19.0143c-2.686.7444-5.292 1.8933-5.486 5.2107 1.019 1.9095 3.237 1.8286 5.486.9548v-2.573c-.838.2924-1.718.4508-2.605.4693.606-.8187 1.371-1.5067 2.249-2.0228.146 0 .275 0 .356-.1457z" fill="#574d7d"/><path d="m176.537 53.4503c-2.881-.1294-5.082-2.0228-5.357-5.7447-.275-5.2755 4.046-8.0912 8.092-8.5281-.147-.7452-.375-1.4723-.679-2.1685-5.422 1.0843-10.634 5.761-9.873 10.9717-.109 1.7703.429 3.5198 1.512 4.9243 1.083 1.4044 2.639 2.3686 4.379 2.7138.661-.6872 1.282-1.4111 1.861-2.1685" fill="#fff"/><g fill="#574d7d"><path d="m131.866 93h-5.341v-87.38472c-.497-.22616-.922-.58699-1.225-1.04168s-.473-.98512-.49-1.53132c0-1.61823 1.99-3.04228 4.467-3.04228 2.476 0 4.515 1.35932 4.515 3.04228-.033.5344-.219 1.04813-.534 1.48092-.315.4328-.748.76673-1.246.96262z"/><path d="m10.8815 15.1629c.4695-.0687.9484-.0296 1.4005.1144.4521.1441.8654.3891 1.2086.7167.3432.3275.6073.7289.7722 1.1738.1649.4448.2262.9213.1795 1.3934 0 3.3659-1.9423 5.8903-4.69376 5.8903h-.03237l1.50523 4.3369c.0535.2338.1891.4408.3821.5833s.4307.2111.6699.1935c.1936.022.3891.022.5827 0-.2428 1.424-.3884 2.2655-.6798 2.5082-.5646.2027-1.1678.2746-1.7642.2104-1.1653 0-1.74797 0-2.0393-1.0033l-1.89367-6.4568h-1.26245l-1.39193 5.8419c-.016.0964-.016.1948 0 .2912 0 .4693.32371.7444.90638.7606l-.14567.5664h-3.722599c-.534112 0-.85781583-.356-.85781583-.8253-.00672689-.1132-.00672689-.2267 0-.3398l3.46363483-14.5642c.01426-.0911.01426-.1839 0-.2751 0-.4045-.29133-.6796-.82545-.7282l.09712-.4692zm-5.01741 7.1849h2.13645c1.81274 0 2.78386-1.2298 2.78386-3.4954 0-.8576-.5179-1.2622-1.61853-1.2622h-2.16882z"/><path d="m26.4517 15.1629c-.3399 2.0228-.4694 2.6377-1.6185 2.6377h-5.0174l-.874 3.7867h5.4382c-.3237 2.0875-.5665 2.4597-1.8937 2.4597h-4.1757l-1.3272 5.4696h5.4382c.2774.0246.5546-.0496.7826-.2095.2281-.1599.3923-.3952.4637-.6643h.4531c-.4531 2.5082-.6474 3.5601-1.9745 3.5601h-8.0927c-.6797 0-1.0196-.2266-1.0196-.7444.0043-.2661.0314-.5314.0809-.7929l3.3503-14.014c.0054-.1024.0054-.205 0-.3074 0-.4369-.2913-.6797-.8416-.7282l.0971-.4693z"/><path d="m34.9812 15.1629c.8902 0 1.2301.3236 1.2787 1.246l.8254 13.9816c0 .7605.3885 1.2298.9711 1.3431v.4693h-3.0752c-.9549 0-1.3919-.5178-1.4404-1.6182l-.1781-3.2365h-5.0983l-1.7156 3.3983c-.0765.1277-.121.2721-.1295.4207 0 .4046.178.5179.615.5664v.4693h-3.3827c-.4532 0-.7121-.2266-.7121-.5826.0526-.4374.2139-.8546.4693-1.2137l7.5747-13.496c.1465-.2467.2351-.5233.259-.8092 0-.3236-.1943-.5178-.6151-.5178l.1295-.4207zm-5.6324 9.9036h3.9168l-.2751-6.473z"/><path d="m44.0448 15.1629c.5179 0 .7607.1942.7607.534-.0048.1436-.0321.2856-.0809.4207l-3.2371 13.3828h4.7423c.7445 0 1.0844-.178 1.311-.8091h.437l-.4208 2.1846c-.1942 1.0033-.7122 1.327-1.748 1.327h-7.5423c-.1086.0137-.2187.0043-.3234-.0276-.1046-.0318-.2014-.0854-.2839-.1572s-.1489-.1602-.1948-.2594c-.046-.0992-.0705-.207-.0719-.3164-.0132-.1561-.0132-.3131 0-.4693l3.4636-14.3375c.0143-.0912.0143-.184 0-.2751 0-.3884-.3237-.6635-.8578-.7282l.1295-.4693z"/><path d="m67.5627 15.1629-.3399 1.5211c-.2589 1.0519-.6636 1.0842-1.6185 1.0842h-3.5607c-1.748 0-2.3631.3884-3.0429 2.2817-.9466 2.4256-1.5301 4.9775-1.7318 7.5734 0 1.3431.8578 1.9419 2.6868 1.9419 1.8289 0 2.0393-.2913 2.2659-1.2784l1.0682-4.612h-1.6509c-.4208 0-.6636-.1942-.6636-.5502-.017-.1452-.017-.2918 0-.4369l.3723-1.4241h4.4509c.7607 0 1.2301.3884 1.2301.89-.0073.3062-.0507.6103-.1295.9063l-1.4243 6.2949c-.0503.4791-.2001.9425-.4398 1.3605-.2397.4179-.564.7813-.9521 1.0668-1.7049.6085-3.5239.8296-5.3249.6473-3.6093 0-5.3088-1.2298-5.3088-4.0941.1107-1.4872.3599-2.9608.7445-4.4016.3715-1.5639.8529-3.0996 1.4405-4.5958.3091-1.2965 1.0656-2.4426 2.1365-3.2365 1.0766-.6139 2.3068-.906 3.5445-.8414z"/><path d="m77.8238 15.1629c.4694-.0687.9484-.0296 1.4004.1144.4521.1441.8654.3891 1.2087.7167.3432.3275.6072.7289.7721 1.1738.1649.4448.2263.9213.1795 1.3934 0 3.3659-1.9422 5.8903-4.6937 5.8903l1.489 4.3369c.0598.2335.1993.4389.3943.5807.1949.1418.4333.2111.674.1961.1936.0212.389.0212.5826 0-.2428 1.424-.3884 2.2655-.6798 2.5082-.5607.1948-1.1581.2611-1.748.1942-1.1653 0-1.748 0-2.0393-1.0033l-1.8937-6.3758h-1.2624l-1.4405 5.7771c-.016.0964-.016.1948 0 .2912 0 .4693.3237.7444.9064.7606l-.1133.4693h-3.7226c-.5341 0-.8578-.2751-.8578-.7444-.0146-.1128-.0146-.227 0-.3398l3.4636-14.5641c.0143-.0912.0143-.184 0-.2751 0-.4046-.2913-.6797-.8254-.7282l.0971-.4693zm-4.9851 7.1849h2.1041c1.8127 0 2.7838-1.2298 2.7838-3.4954 0-.8576-.5179-1.2622-1.6185-1.2622h-2.1688z"/><path d="m86.3042 15.1629c.5665 0 .8416.1456.8416.5663-.0105.143-.0377.2842-.0809.4208l-2.6705 11.0687c-.093.3276-.1526.6638-.1781 1.0033 0 1.0357.7607 1.505 2.3631 1.505 1.9422 0 2.5572-.7606 3.0751-2.8643l2.4764-10.0816c.0228-.1556.0228-.3137 0-.4693 0-.3884-.259-.6311-.7769-.6796l.0971-.4693h3.4475c.7121 0 1.052.1132 1.052.6634.0222.1448.0222.2922 0 .437l-2.881 11.6351c-.8578 3.463-2.978 4.531-7.0405 4.531-3.7388 0-5.5516-1.0194-5.5516-3.6248.0015-.4642.0613-.9263.1781-1.3755l2.5572-10.5995c.0198-.1449.0198-.2919 0-.4369 0-.4207-.2913-.712-.8092-.7605l.1456-.4693z"/><path d="m103.995 15.1629c2.33 0 3.415 1.1004 3.415 3.463.071 1.8957-.499 3.76-1.619 5.2916-1.246 1.4079-2.864 1.6183-5.308 1.6183h-2.2987l-1.2301 5.1298c-.0054.1078-.0054.2158 0 .3236 0 .4855.3561.7606.9388.7606l-.0971.4693h-3.7874c-.1134.014-.2284.0034-.3373-.0312-.1089-.0345-.2091-.0922-.2936-.169-.0845-.0769-.1515-.1711-.1962-.2762-.0448-.1051-.0663-.2186-.0631-.3328-.0067-.1131-.0067-.2266 0-.3398l3.496-14.4185c.0157-.091.0157-.184 0-.2751 0-.4045-.3075-.6796-.8416-.7282l.0971-.4693zm-5.2604 7.816h1.1815c1.4239 0 2.2979-.1132 2.8329-.7282.671-.878 1.035-1.9529 1.035-3.0584 0-1.1328-.437-1.6183-1.521-1.6183h-2.136z"/><path d="m106.682 28.2382c.086-1.5249.324-3.0375.712-4.5149.306-1.5998.766-3.166 1.376-4.6767.519-1.3509 1.47-2.4925 2.705-3.2474 1.235-.755 2.685-1.0811 4.125-.9276 3.863 0 5.794 1.3809 5.794 4.1427-.056 1.1997-.224 2.3916-.502 3.5601-.35 2.0355-.937 4.0232-1.748 5.9227-1.489 2.9614-3.237 3.8676-6.976 3.8676-3.738 0-5.486-1.2137-5.486-4.1265zm6.15 1.505c1.716 0 2.573-1.1004 3.318-3.4145.729-2.0897 1.18-4.2659 1.343-6.4729 0-1.6183-.679-2.3141-2.185-2.3141-1.505 0-2.557 1.0033-3.237 3.0908-.797 2.2075-1.308 4.5079-1.521 6.8452-.037.3078-.003.6199.099.9127.101.2928.269.5586.489.777s.487.3838.78.4836c.294.0998.606.1313.914.0922z"/></g><path d="m16.0605 35.5203c.6798 0 1.0197.2751 1.0197.7605-.011.1588-.0382.3161-.081.4693l-3.3827 14.0949c-.0682.2148-.1063.4381-.1133.6634 0 .3237.3237.5502.9711.615l-.1294.4693h-3.3666c-.1195.0174-.2415.006-.3558-.0331-.1144-.0391-.2177-.1048-.3016-.1918-.0838-.087-.1457-.1927-.1806-.3084-.0348-.1156-.0416-.238-.0198-.3568-.0167-.2208-.0167-.4426 0-.6634l-1.10058 1.1813c-.50174.5178-1.27863.5502-2.58963.5502-2.33067 0-3.43127-.8901-3.43127-2.8805.07969-1.3822.31866-2.7505.71215-4.0779.32807-1.4518.77189-2.875 1.32719-4.256.30816-.6879.80834-1.2723 1.44048-1.683 1.2886-.7101 2.75778-1.0253 4.22436-.9062h2.363l.3885-1.7153c.0158-.1344.0158-.2702 0-.4046 0-.4854-.1943-.6796-.7769-.8253l.1456-.5016zm-4.4509 5.9551c-1.86135 0-2.99431.4693-3.43131 1.6182-.75387 1.7634-1.21316 3.6385-1.35956 5.5506 0 1.0842.53411 1.6182 1.89367 1.6182 1.3596 0 1.7966-.5987 2.1688-2.1523l1.6185-6.4729c-.2931-.0719-.5904-.1259-.8901-.1618z" fill="#e63027"/><path d="m20.1072 46.1197c-.2169.7334-.3579 1.4872-.4208 2.2494 0 1.2946.8093 1.6182 2.7353 1.6182 2.4116 0 3.6579-.1942 3.9978-1.246h.4694c-.0441 1.1005-.3852 2.1685-.9873 3.0908-.8579.9062-1.9423.9871-3.6093.9871h-.2752c-4.2081 0-5.8267-.6635-5.8267-3.6896.1925-2.0569.6104-4.0865 1.2463-6.0522.2305-.9435.661-1.8264 1.2624-2.5891.6321-.6225 1.3983-1.092 2.24-1.3725s1.7364-.3646 2.6156-.2458c3.4151 0 5.0174.9548 5.0174 3.463-.0042.9162-.1855 1.8229-.5341 2.6701-.1033.3891-.3479.7257-.6861.9441-.3382.2185-.7456.303-1.1428.2372zm5.1308-3.2365c0-1.0518-.5827-1.6182-1.8128-1.6182-1.5052 0-2.2335.8577-2.7838 2.8157h4.3052c.1639-.3912.2624-.8067.2914-1.2298z" fill="#e63027"/><path d="m47.4279 35.5203c-.3399 2.1199-.5503 2.6539-1.9584 2.6539h-2.2821c-1.392 0-2.1041.2427-2.6221 1.4564-.5356 1.3835-.9631 2.8064-1.2786 4.2559-.356 1.3065-.5784 2.6457-.6636 3.9971 0 1.9257.8417 2.1199 3.3827 2.1199 1.8937 0 2.8648-.178 3.2371-1.0519h.5179c-.1157 1.1132-.4928 2.1834-1.1006 3.1232-.5665.534-1.8937.712-4.0949.712-1.3073.1142-2.6212-.1262-3.8035-.6958-.6724-.4216-1.2106-1.0261-1.5518-1.7426-.3411-.7165-.4709-1.5154-.3742-2.303.0141-.7724.1008-1.5417.259-2.2979.3391-1.9136.8317-3.7968 1.4728-5.6314 1.2301-3.2365 2.622-4.5958 5.4868-4.5958z" fill="#e63027"/><path d="m52.558 35.5203c.5665 0 .8254.1456.8254.5664.0183.1396.0183.281 0 .4207l-2.6867 11.0687c-.093.3276-.1526.6638-.1781 1.0033 0 1.0357.7769 1.505 2.3631 1.505 1.9422 0 2.5572-.7606 3.0752-2.8643l2.4277-10.0816c.0229-.1556.0229-.3137 0-.4693 0-.3884-.2751-.6311-.793-.6796l.0971-.4693h3.496c.7121 0 1.052.1294 1.052.6634.0223.1448.0223.2922 0 .437l-2.8648 11.6351c-.874 3.463-2.978 4.531-7.0405 4.531-3.7388 0-5.5677-1.0033-5.5677-3.6248.0122-.4527.0718-.9029.178-1.3431l2.5573-10.5995c.0469-.1412.0741-.2882.0809-.4369 0-.4207-.2913-.712-.8093-.7606l.0971-.4693z" fill="#e63027"/><path d="m67.1737 35.5203c.5017 0 .7607.1942.7607.534.0216.1394.0216.2813 0 .4207l-3.237 13.3828h4.7584c.7283 0 1.0844-.178 1.2948-.8091h.4532l-.4208 2.1846c-.1942 1.0033-.7122 1.327-1.748 1.327h-7.6556c-.1078.0139-.2172.0045-.321-.0275-.1038-.0319-.1996-.0857-.2809-.1578-.0812-.0721-.1461-.1607-.1903-.2599-.0441-.0992-.0665-.2068-.0656-.3154-.0132-.1561-.0132-.3131 0-.4693l3.4636-14.3375c.0143-.0912.0143-.184 0-.2751 0-.3884-.3237-.6635-.8578-.7282l.1133-.4693z" fill="#e63027"/><path d="m84.4435 34.9539c-.4694 2.2493-.5665 3.2365-1.829 3.2365h-2.6382l-3.0913 12.6384c-.0228.1556-.0228.3137 0 .4693 0 .4854.3237.7767.9387.8253l-.0971.4693h-3.2694c-.874 0-1.2948-.2913-1.2948-.9063-.023-.1393-.023-.2814 0-.4207l3.1237-13.1077h-2.4278c-.6474 0-.9387.178-1.052.6958h-.4694c.5665-2.492.6151-3.2364 2.185-3.2364h8.384c.6474 0 .9711-.1295 1.0844-.5988z" fill="#e63027"/><path d="m87.5347 35.5203c.5665 0 .8416.1456.8416.5664-.0105.1429-.0377.2841-.0809.4207l-2.6706 11.1011c-.1009.3257-.1607.6628-.178 1.0033 0 1.0357.7607 1.505 2.363 1.505 1.9423 0 2.5573-.7606 3.0752-2.8643l2.4764-10.114c.0228-.1556.0228-.3137 0-.4693 0-.3884-.259-.6311-.7769-.6796l.0971-.4693h3.4312c.7284 0 1.0683.1294 1.0683.6634.0222.1448.0222.2922 0 .437l-2.881 11.6351c-.8578 3.463-2.9781 4.531-7.0406 4.531-3.7387 0-5.5515-1.0033-5.5515-3.6248.0033-.4631.0576-.9243.1619-1.3755l2.5734-10.5994c.0213-.1449.0213-.2921 0-.437 0-.4207-.2913-.712-.8093-.7605l.0972-.4693z" fill="#e63027"/><path d="m106.374 35.5203c.47-.0682.95-.0288 1.402.1152.453.1439.867.3887 1.212.7159.344.3271.61.7282.776 1.1728.167.4447.231.9215.187 1.3944 0 3.3659-1.942 5.8903-4.71 5.8903l1.505 4.3369c.056.2337.192.4406.384.5853.192.1446.428.218.668.2076.202-.0061.403-.0332.599-.0809-.243 1.4241-.388 2.2656-.696 2.5083-.56.1964-1.158.2628-1.748.1942-1.149 0-1.748 0-2.039-1.0033l-1.942-6.3273h-1.247l-1.4077 5.858c-.008.0969-.008.1943 0 .2913 0 .4693.3075.7444.9067.7605l-.13.4693h-3.7224c-.5503 0-.8578-.2751-.8578-.7282-.0158-.1181-.0158-.2378 0-.356l3.4636-14.4832c.0064-.0916.0064-.1835 0-.2751 0-.4046-.2913-.6797-.8416-.7282l.0971-.4693zm-5.017 7.1849h2.136c1.829 0 2.784-1.2298 2.784-3.4954 0-.8576-.518-1.2622-1.619-1.2622h-2.168z" fill="#e63027"/><path d="m119.339 35.5203c.89 0 1.23.3236 1.278 1.246l.809 13.9816c0 .7605.405 1.2298.988 1.3431v.4693h-3.075c-.955 0-1.392-.5178-1.441-1.6182l-.178-3.2365h-5.098l-1.716 3.3335c-.078.1213-.122.2608-.129.4046 0 .4046.178.5178.615.5664v.4693h-3.237c-.454 0-.713-.2266-.713-.5826.053-.4374.214-.8546.47-1.2137l7.574-13.496c.14-.2321.228-.4915.259-.7606 0-.3237-.194-.5179-.615-.5179l-.048-.3883zm-5.633 9.9036h3.917l-.275-6.473z" fill="#e63027"/><path d="m12.6452 55.9424c-.3399 2.1199-.5664 2.6539-1.9584 2.6539h-2.29828c-1.37574 0-2.08789.2427-2.60581 1.4564-.54354 1.3808-.97122 2.8043-1.27863 4.256-.36271 1.305-.58517 2.6449-.6636 3.997 0 1.9257.84163 2.1199 3.36652 2.1199 1.89367 0 2.881-.1618 3.237-1.0518h.518c-.1112 1.1167-.4947 2.1891-1.11681 3.1232-.55029.534-1.89367.712-4.07867.712-1.30735.1141-2.62129-.1263-3.80352-.6959-.67238-.4216-1.210667-1.026-1.551784-1.7426-.3411162-.7165-.4709383-1.5153-.3742557-2.303.0161677-.7714.0973817-1.5401.2427777-2.2978.355073-1.9101.847302-3.7922 1.472852-5.6315 1.23008-3.2365 2.63819-4.5958 5.48679-4.5958z" fill="#574d7d"/><path d="m11.9824 69.0177c.086-1.5249.3246-3.0374.7122-4.5148.3118-1.6089.7723-3.1854 1.3757-4.7091.5226-1.3522 1.4767-2.4943 2.7145-3.2491 1.2379-.7549 2.6902-1.0803 4.1319-.9259 3.8682 0 5.7781 1.3755 5.7781 4.1588-.0541 1.215-.2166 2.4227-.4856 3.6087-.3585 2.0336-.9448 4.0203-1.748 5.9227-1.5052 2.9614-3.237 3.8676-6.992 3.8676s-5.4868-1.246-5.4868-4.1589zm6.1504 1.505c1.7318 0 2.5896-1.1004 3.318-3.4145.73-2.0901 1.1869-4.2657 1.3595-6.4729 0-1.6182-.6959-2.3141-2.185-2.3141-1.489 0-2.5572 1.0033-3.237 3.0908-.8357 2.2015-1.3798 4.5027-1.6185 6.8452-.0398.3156-.0052.6361.101.9359.1063.2998.2812.5707.5108.7908.2296.2202.5076.3836.8117.4771.3041.0936.6258.1147.9395.0617z" fill="#574d7d"/><path d="m29.996 55.9424c1.0034 0 1.2948.2751 1.3433 1.1813l.7284 11.6028 4.8555-11.2144c.079-.1695.1335-.3493.1619-.534 0-.3237-.2266-.5017-.6636-.5664l.1295-.4693h2.9457c.7121 0 1.052.1456 1.052.5987-.0287.2725-.1113.5365-.2428.7768l-7.3642 15.6645h-2.7677c-.8255 0-1.0197-.1942-1.1168-1.1813l-1.1977-13.9654c-.0809-.9385-.259-1.3269-1.0197-1.424l.1295-.4693z" fill="#574d7d"/><path d="m47.8484 55.9424c.8902 0 1.2301.3237 1.2787 1.2622l.8092 13.9654c0 .7606.4047 1.2299.9873 1.3431v.4693h-3.0752c-.9549 0-1.3919-.5178-1.4405-1.6182l-.178-3.2365h-5.0983l-1.7157 3.3336c-.0777.1212-.1223.2607-.1294.4045 0 .4046.178.5179.615.5664v.4693h-3.3827c-.4532 0-.7122-.2103-.7122-.5825.0553-.4368.2164-.8534.4694-1.2137l7.5747-13.4961c.1397-.2321.228-.4915.2589-.7606 0-.3236-.1942-.5178-.615-.5178l.0971-.4693zm-5.6324 9.9036h3.9168l-.2751-6.4729z" fill="#574d7d"/><path d="m61.8001 55.9424c2.978 0 4.3861 1.2784 4.3861 4.0618-.1074 2.1221-.4882 4.2216-1.1329 6.2464-.3907 1.5948-1.0065 3.1259-1.8289 4.5472-.4735.769-1.1595 1.3844-1.9752 1.7721-.8156.3876-1.7261.5309-2.6214.4125h-6.636c-1.0196 0-1.4566 0-1.4566-.8253.039-.3495.1039-.6957.1942-1.0356l3.1561-13.1078c.0783-.2635.1271-.5348.1457-.8091 0-.5016-.2752-.7282-.8902-.7929l.1295-.4693zm-7.1863 14.289h3.4475c.3931.0297.7867-.0517 1.1358-.2348s.6397-.4606.8388-.8008c.4113-.7414.7475-1.5221 1.0035-2.3303.7459-2.0395 1.1929-4.1761 1.3271-6.3435.0436-.2662.0238-.539-.0579-.7962-.0816-.2571-.2228-.4914-.412-.6838-.1893-.1923-.4212-.3373-.677-.4232s-.5283-.1102-.7953-.071h-2.9457z" fill="#574d7d"/><path d="m65.5713 69.0177c.1124-1.5277.3781-3.0402.7931-4.5148.2775-1.6081.7112-3.1852 1.2948-4.7091.5236-1.3391 1.4721-2.4694 2.7-3.2177s2.6674-1.0733 4.0978-.925c3.8682 0 5.7943 1.3755 5.7943 4.1589-.053 1.216-.221 2.4243-.5018 3.6087-.3503 2.0354-.9369 4.0231-1.748 5.9227-1.489 2.9614-3.237 3.8676-6.9758 3.8676s-5.4544-1.2784-5.4544-4.1913zm6.1504 1.505c1.7156 0 2.5734-1.1004 3.237-3.4145.7286-2.0897 1.1802-4.2659 1.3434-6.4729 0-1.6183-.6798-2.3141-2.185-2.3141s-2.5573 1.0033-3.2371 3.0908c-.7971 2.2075-1.3084 4.5079-1.5214 6.8452-.0398.3156-.0052.6361.1011.9359.1062.2998.2811.5707.5108.7908.2296.2202.5076.3836.8116.4771.3041.0936.6259.1147.9396.0617z" fill="#574d7d"/><path d="m85.2689 55.9424c1.3757 0 1.748.712 2.1688 2.1361l2.8 9.4181 2.3469-10.0816c.0086-.0915.0086-.1836 0-.2751 0-.4046-.2752-.6797-.8093-.7282l.0971-.4693h2.8972c.696 0 1.0197.2266 1.0197.6635.0197.145.0197.2919 0 .4369l-3.7874 15.9396h-2.104c-.9226 0-1.6186-.6634-2.0879-1.9419l-3.0267-9.7094-2.3792 10.1949c-.0144.102-.0144.2055 0 .3075 0 .4531.2913.6473.9064.6635l-.0971.4692h-3.2371c-.105.0119-.2113.0008-.3116-.0325s-.1921-.0881-.2691-.1605c-.077-.0723-.1373-.1606-.1768-.2586-.0394-.098-.0571-.2034-.0517-.3089-.0131-.0967-.0131-.1947 0-.2913l3.4636-14.5641c.0142-.0912.0142-.184 0-.2751 0-.4208-.3237-.712-.8578-.7606l.0971-.4693z" fill="#574d7d"/><path d="m108.738 55.9424-.34 1.5211c-.243 1.0681-.664 1.0843-1.522 1.0843h-3.577c-1.748 0-2.363.3883-3.043 2.2817-.9436 2.4255-1.5217 4.9778-1.7152 7.5733 0 1.3432.8579 1.9581 2.6702 1.9581 1.813 0 2.04-.3075 2.266-1.2784l1.085-4.6282h-1.748c-.421 0-.664-.1942-.664-.5502-.017-.1451-.017-.2918 0-.4369l.372-1.4241h4.451c.761 0 1.23.3884 1.23.8901-.003.3054-.041.6094-.113.9062l-1.424 6.2949c-.056.4794-.21.9422-.452 1.3597-.243.4175-.568.7809-.956 1.0677-1.699.6087-3.513.8299-5.309.6473-3.6255 0-5.325-1.2299-5.325-4.078.1505-1.4917.4432-2.9655.874-4.4016.356-1.582.8155-3.1388 1.3758-4.6605.3154-1.2938 1.0706-2.4378 2.1364-3.2365 1.0768-.6139 2.3068-.906 3.5448-.8415z" fill="#574d7d"/><path d="m118.61 55.9424c.874 0 1.23.3236 1.278 1.2622l.81 13.9654c0 .7606.388 1.2299.987 1.3431l-.081.4693h-2.994c-.955 0-1.408-.5178-1.457-1.6182l-.178-3.2365h-5.082l-1.732 3.3336c-.074.1219-.113.2618-.113.4045 0 .4046.178.5179.615.5664l-.081.4693h-3.237c-.437 0-.712-.2104-.712-.5826.063-.4347.223-.8496.469-1.2136l7.494-13.4152c.15-.2285.244-.489.275-.7606 0-.3236-.194-.5178-.615-.5178l.097-.4693zm-5.633 9.9036h3.901l-.259-6.4729z" fill="#574d7d"/></svg>